<svg xmlns="http://www.w3.org/2000/svg" viewBox="0 0 500 430">
  <defs>
    <linearGradient id="bg" x1="0" y1="0" x2="0" y2="1"><stop stop-color="#7a2a64"/><stop offset="1" stop-color="#2a0e26"/></linearGradient>
    <radialGradient id="spot" cx=".5" cy=".42" r=".62"><stop stop-color="#ffb8e6" stop-opacity=".5"/><stop offset="1" stop-color="#ffb8e6" stop-opacity="0"/></radialGradient>
  </defs>
  <rect width="500" height="430" fill="url(#bg)"/>
  <path transform="translate(110 120)" d="M0 -5L1.4000000000000001 -1.4000000000000001 5 0 1.4000000000000001 1.4000000000000001 0 5 -1.4000000000000001 1.4000000000000001 -5 0 -1.4000000000000001 -1.4000000000000001Z" fill="#ffc8ee"/><path transform="translate(392 130)" d="M0 -5L1.4000000000000001 -1.4000000000000001 5 0 1.4000000000000001 1.4000000000000001 0 5 -1.4000000000000001 1.4000000000000001 -5 0 -1.4000000000000001 -1.4000000000000001Z" fill="#ffc8ee"/><path transform="translate(400 300)" d="M0 -4L1.12 -1.12 4 0 1.12 1.12 0 4 -1.12 1.12 -4 0 -1.12 -1.12Z" fill="#ffc8ee"/><path transform="translate(120 300)" d="M0 -4L1.12 -1.12 4 0 1.12 1.12 0 4 -1.12 1.12 -4 0 -1.12 -1.12Z" fill="#ffc8ee"/>
  <ellipse cx="250" cy="210" rx="235" ry="205" fill="url(#spot)"/>
  <ellipse cx="250" cy="378" rx="190" ry="30" fill="#000" opacity=".16"/>
  <g transform="translate(250 235) rotate(0) scale(1)">
  <path d="M-150 60C-150-78-60-140 30-128 132-114 150 8 120 86 90 150-150 178-150 60Z" fill="#5e2050"/>
  <g stroke="#806244" stroke-width="7" stroke-linecap="round" opacity=".85">
    <path d="M-120 30-150-2M-104-18-128-58M-70-42-86-92M-30-54-36-108M16-54 18-110M58-46 74-96M96-28 122-64M118 2 152-18"/>
  </g>
  <ellipse cx="36" cy="44" rx="120" ry="100" fill="#e6a8d2"/>
  <ellipse cx="44" cy="74" rx="78" ry="60" fill="#f6d2ec" opacity=".55"/>
  <path d="M120 36c40 2 60 26 58 50-2 22-26 34-54 30Z" fill="#e6a8d2"/>
  <circle cx="171" cy="64" r="9" fill="#241d2b"/>
  <ellipse cx="86" cy="88" rx="20" ry="12" fill="#ea8f7a" opacity=".5"/>
  <g transform="translate(70 40)">
    <path d="M-16-7c-7-7-17 2-7 9l7 7 7-7c10-7 0-16-7-9Z" fill="#ea8f7a"/>
    <path d="M16-7c-7-7-17 2-7 9l7 7 7-7c10-7 0-16-7-9Z" fill="#ea8f7a"/>
    <path d="M-12 22q12 9 24 0" fill="none" stroke="#241d2b" stroke-width="4.5" stroke-linecap="round"/></g></g>
      <path d="M196 150q8-58 -4-96q30 30 26 92Z" fill="#f6e4f2" stroke="#241d2b" stroke-width="3"/>
      <g fill="#ff8ac8"><path d="M300 150c-8-10-22 0-12 11l12 11 12-11c10-11-4-21-12-11Z"/><path d="M348 196c-6-8-17 0-9 9l9 8 9-8c8-9-3-17-9-9Z"/></g>
</svg>