<svg xmlns="http://www.w3.org/2000/svg" viewBox="0 0 500 430">
  <defs>
    <linearGradient id="bg" x1="0" y1="0" x2="0" y2="1"><stop stop-color="#1f3a78"/><stop offset="1" stop-color="#0e1838"/></linearGradient>
    <radialGradient id="spot" cx=".5" cy=".42" r=".62"><stop stop-color="#e6ecff" stop-opacity=".5"/><stop offset="1" stop-color="#e6ecff" stop-opacity="0"/></radialGradient>
  </defs>
  <rect width="500" height="430" fill="url(#bg)"/>
  <path transform="translate(110 110)" d="M0 -6L1.6800000000000002 -1.6800000000000002 6 0 1.6800000000000002 1.6800000000000002 0 6 -1.6800000000000002 1.6800000000000002 -6 0 -1.6800000000000002 -1.6800000000000002Z" fill="#ff6b6b"/><path transform="translate(392 120)" d="M0 -6L1.6800000000000002 -1.6800000000000002 6 0 1.6800000000000002 1.6800000000000002 0 6 -1.6800000000000002 1.6800000000000002 -6 0 -1.6800000000000002 -1.6800000000000002Z" fill="#fff"/><path transform="translate(400 300)" d="M0 -5L1.4000000000000001 -1.4000000000000001 5 0 1.4000000000000001 1.4000000000000001 0 5 -1.4000000000000001 1.4000000000000001 -5 0 -1.4000000000000001 -1.4000000000000001Z" fill="#6b8cff"/><path transform="translate(120 300)" d="M0 -5L1.4000000000000001 -1.4000000000000001 5 0 1.4000000000000001 1.4000000000000001 0 5 -1.4000000000000001 1.4000000000000001 -5 0 -1.4000000000000001 -1.4000000000000001Z" fill="#fff"/>
  <ellipse cx="250" cy="210" rx="235" ry="205" fill="url(#spot)"/>
  <ellipse cx="250" cy="378" rx="190" ry="30" fill="#000" opacity=".16"/>
  <path d="M150 250c80-30 150-30 220 0l-30 120H180Z" fill="#c8324a" opacity=".9"/>
      <g transform="translate(250 235) rotate(0) scale(1)">
  <path d="M-150 60C-150-78-60-140 30-128 132-114 150 8 120 86 90 150-150 178-150 60Z" fill="#23386e"/>
  <g stroke="#806244" stroke-width="7" stroke-linecap="round" opacity=".85">
    <path d="M-120 30-150-2M-104-18-128-58M-70-42-86-92M-30-54-36-108M16-54 18-110M58-46 74-96M96-28 122-64M118 2 152-18"/>
  </g>
  <ellipse cx="36" cy="44" rx="120" ry="100" fill="#eef2ff"/>
  <ellipse cx="44" cy="74" rx="78" ry="60" fill="#ffffff" opacity=".55"/>
  <path d="M120 36c40 2 60 26 58 50-2 22-26 34-54 30Z" fill="#eef2ff"/>
  <circle cx="171" cy="64" r="9" fill="#241d2b"/>
  <ellipse cx="86" cy="88" rx="20" ry="12" fill="#ea8f7a" opacity=".5"/>
  <g transform="translate(70 40)">
    <rect x="-30" y="-8" width="60" height="20" rx="9" fill="#241d2b"/>
    <rect x="-28" y="-6" width="22" height="14" rx="6" fill="#3a4a6b"/><rect x="6" y="-6" width="22" height="14" rx="6" fill="#3a4a6b"/>
    <path d="M-30 0h60" stroke="#241d2b" stroke-width="4"/>
    <path d="M-9 22q9 6 18 0" fill="none" stroke="#241d2b" stroke-width="4" stroke-linecap="round"/></g></g>
      <path d="M150 256h220" stroke="#fff" stroke-width="6"/>
      <path transform="translate(316 232)" d="M0 -18L5.040000000000001 -5.040000000000001 18 0 5.040000000000001 5.040000000000001 0 18 -5.040000000000001 5.040000000000001 -18 0 -5.040000000000001 -5.040000000000001Z" fill="#ffd24a"/>
</svg>