<svg xmlns="http://www.w3.org/2000/svg" viewBox="0 0 500 430">
  <defs>
    <linearGradient id="bg" x1="0" y1="0" x2="0" y2="1"><stop stop-color="#5b86c4"/><stop offset="1" stop-color="#1c2c50"/></linearGradient>
    <radialGradient id="spot" cx=".5" cy=".42" r=".62"><stop stop-color="#fbf4d6" stop-opacity=".5"/><stop offset="1" stop-color="#fbf4d6" stop-opacity="0"/></radialGradient>
  </defs>
  <rect width="500" height="430" fill="url(#bg)"/>
  <path transform="translate(110 110)" d="M0 -4L1.12 -1.12 4 0 1.12 1.12 0 4 -1.12 1.12 -4 0 -1.12 -1.12Z" fill="#fff"/><path transform="translate(392 120)" d="M0 -4L1.12 -1.12 4 0 1.12 1.12 0 4 -1.12 1.12 -4 0 -1.12 -1.12Z" fill="#fff"/><path transform="translate(120 300)" d="M0 -4L1.12 -1.12 4 0 1.12 1.12 0 4 -1.12 1.12 -4 0 -1.12 -1.12Z" fill="#fff"/><path transform="translate(400 300)" d="M0 -4L1.12 -1.12 4 0 1.12 1.12 0 4 -1.12 1.12 -4 0 -1.12 -1.12Z" fill="#fff"/>
  <ellipse cx="250" cy="210" rx="235" ry="205" fill="url(#spot)"/>
  <ellipse cx="250" cy="378" rx="190" ry="30" fill="#000" opacity=".16"/>
  <g transform="translate(150 220) scale(-1.05 1.05)">
    <path d="M0 0c40-26 92-30 132-6-30 6-30 6-54 18 36 0 60 8 84 28-34 0-40 0-66 10 30 6 48 18 64 40-44-8-92-22-130-52Z" fill="#fbf3df" stroke="#cfe6ff" stroke-width="3"/>
  </g><g transform="translate(350 220) scale(1.05 1.05)">
    <path d="M0 0c40-26 92-30 132-6-30 6-30 6-54 18 36 0 60 8 84 28-34 0-40 0-66 10 30 6 48 18 64 40-44-8-92-22-130-52Z" fill="#fbf3df" stroke="#cfe6ff" stroke-width="3"/>
  </g>
      <g transform="translate(250 235) rotate(0) scale(1)">
  <path d="M-150 60C-150-78-60-140 30-128 132-114 150 8 120 86 90 150-150 178-150 60Z" fill="#4a6fa8"/>
  <g stroke="#806244" stroke-width="7" stroke-linecap="round" opacity=".85">
    <path d="M-120 30-150-2M-104-18-128-58M-70-42-86-92M-30-54-36-108M16-54 18-110M58-46 74-96M96-28 122-64M118 2 152-18"/>
  </g>
  <ellipse cx="36" cy="44" rx="120" ry="100" fill="#f4f6fb"/>
  <ellipse cx="44" cy="74" rx="78" ry="60" fill="#ffffff" opacity=".55"/>
  <path d="M120 36c40 2 60 26 58 50-2 22-26 34-54 30Z" fill="#f4f6fb"/>
  <circle cx="171" cy="64" r="9" fill="#241d2b"/>
  <ellipse cx="86" cy="88" rx="20" ry="12" fill="#ea8f7a" opacity=".5"/>
  <g transform="translate(70 40)">
    <circle cx="-16" cy="0" r="9" fill="#241d2b"/><circle cx="16" cy="0" r="9" fill="#241d2b"/>
    <circle cx="-13.5" cy="-2.5" r="1.8" fill="#fff"/><circle cx="18.5" cy="-2.5" r="1.8" fill="#fff"/>
    <path d="M-13 20q13 12 26 0" fill="none" stroke="#241d2b" stroke-width="4.5" stroke-linecap="round"/></g></g>
      <ellipse cx="186" cy="92" rx="56" ry="16" fill="none" stroke="#ffe27b" stroke-width="9"/>
</svg>