<svg xmlns="http://www.w3.org/2000/svg" viewBox="0 0 500 430">
  <defs>
    <linearGradient id="bg" x1="0" y1="0" x2="0" y2="1"><stop stop-color="#9a6a1e"/><stop offset="1" stop-color="#3a2810"/></linearGradient>
    <radialGradient id="spot" cx=".5" cy=".42" r=".62"><stop stop-color="#ffe6a0" stop-opacity=".5"/><stop offset="1" stop-color="#ffe6a0" stop-opacity="0"/></radialGradient>
  </defs>
  <rect width="500" height="430" fill="url(#bg)"/>
  <g stroke="#ffe27b" stroke-width="4" stroke-linecap="round" opacity=".7"><path d="M380 150l28-10M388 178l30 2M384 206l26 12"/></g>
  <ellipse cx="250" cy="210" rx="235" ry="205" fill="url(#spot)"/>
  <ellipse cx="250" cy="378" rx="190" ry="30" fill="#000" opacity=".16"/>
  <g transform="translate(150 210) scale(-0.9 0.9)">
    <path d="M0 0c40-26 92-30 132-6-30 6-30 6-54 18 36 0 60 8 84 28-34 0-40 0-66 10 30 6 48 18 64 40-44-8-92-22-130-52Z" fill="#fce8b0" stroke="#e8c878" stroke-width="3"/>
  </g>
      <g transform="translate(250 235) rotate(-4) scale(1)">
  <path d="M-150 60C-150-78-60-140 30-128 132-114 150 8 120 86 90 150-150 178-150 60Z" fill="#7a5418"/>
  <g stroke="#806244" stroke-width="7" stroke-linecap="round" opacity=".85">
    <path d="M-120 30-150-2M-104-18-128-58M-70-42-86-92M-30-54-36-108M16-54 18-110M58-46 74-96M96-28 122-64M118 2 152-18"/>
  </g>
  <ellipse cx="36" cy="44" rx="120" ry="100" fill="#f0c862"/>
  <ellipse cx="44" cy="74" rx="78" ry="60" fill="#f6dcb6" opacity=".55"/>
  <path d="M120 36c40 2 60 26 58 50-2 22-26 34-54 30Z" fill="#f0c862"/>
  <circle cx="171" cy="64" r="9" fill="#241d2b"/>
  <ellipse cx="86" cy="88" rx="20" ry="12" fill="#ea8f7a" opacity=".5"/>
  <g transform="translate(70 40)">
    <circle cx="-16" cy="-2" r="11" fill="#fff" stroke="#241d2b" stroke-width="3"/>
    <circle cx="16" cy="-2" r="11" fill="#fff" stroke="#241d2b" stroke-width="3"/>
    <circle cx="-16" cy="1" r="4.5" fill="#241d2b"/>
    <circle cx="16" cy="1" r="4.5" fill="#241d2b"/>
    <path d="M-18 17q18 22 36 0q-18 9-36 0Z" fill="#d96b6b" stroke="#241d2b" stroke-width="3.5" stroke-linejoin="round"/></g></g>
      <g transform="translate(330 200) rotate(8)"><path d="M0-22 56-40v80L0 22Z" fill="#e85b96" stroke="#241d2b" stroke-width="3"/><rect x="-18" y="-22" width="22" height="44" rx="6" fill="#2b2330"/></g>
      <g transform="translate(308 232) scale(1 1)">
    <ellipse rx="13" ry="11.700000000000001" fill="#e3b988"/>
    <circle cx="6.5" cy="-3" r="11.049999999999999" fill="#e3b988"/>
  </g>
</svg>