<svg xmlns="http://www.w3.org/2000/svg" viewBox="0 0 500 430">
  <defs>
    <linearGradient id="bg" x1="0" y1="0" x2="0" y2="1"><stop stop-color="#2c2740"/><stop offset="1" stop-color="#100d1c"/></linearGradient>
    <radialGradient id="spot" cx=".5" cy=".42" r=".62"><stop stop-color="#b6a8e0" stop-opacity=".5"/><stop offset="1" stop-color="#b6a8e0" stop-opacity="0"/></radialGradient>
  </defs>
  <rect width="500" height="430" fill="url(#bg)"/>
  <path transform="translate(110 100)" d="M0 -4L1.12 -1.12 4 0 1.12 1.12 0 4 -1.12 1.12 -4 0 -1.12 -1.12Z" fill="#cfc4f0"/><path transform="translate(380 120)" d="M0 -5L1.4000000000000001 -1.4000000000000001 5 0 1.4000000000000001 1.4000000000000001 0 5 -1.4000000000000001 1.4000000000000001 -5 0 -1.4000000000000001 -1.4000000000000001Z" fill="#cfc4f0"/><path transform="translate(410 280)" d="M0 -4L1.12 -1.12 4 0 1.12 1.12 0 4 -1.12 1.12 -4 0 -1.12 -1.12Z" fill="#cfc4f0"/><path transform="translate(120 300)" d="M0 -4L1.12 -1.12 4 0 1.12 1.12 0 4 -1.12 1.12 -4 0 -1.12 -1.12Z" fill="#cfc4f0"/>
  <ellipse cx="250" cy="210" rx="235" ry="205" fill="url(#spot)"/>
  <ellipse cx="250" cy="378" rx="190" ry="30" fill="#000" opacity=".16"/>
  <g transform="translate(250 235) rotate(0) scale(1)">
  <path d="M-96 36C-96-58-24-104 36-92 116-76 116 24 92 70 64 122-96 130-96 36Z" fill="#2a2438"/>
  <g stroke="#806244" stroke-width="6" stroke-linecap="round" opacity=".85">
    <path d="M-74 18-96-6M-58-28-74-58M-24-42-28-80M22-40 24-80M58-30 76-58M84-6 108-22"/>
  </g>
  <ellipse cx="26" cy="34" rx="84" ry="72" fill="#5b5570"/>
  <ellipse cx="32" cy="56" rx="56" ry="44" fill="#6f6889" opacity=".55"/>
  <path d="M88 30c30 0 44 18 42 36-2 16-20 24-40 20Z" fill="#5b5570"/>
  <circle cx="126" cy="50" r="7" fill="#241d2b"/>
  <ellipse cx="66" cy="64" rx="15" ry="9" fill="#ea8f7a" opacity=".5"/>
  <g transform="translate(40 18) scale(.82)">
    <path d="M-24 0q8 8 16 0" fill="none" stroke="#241d2b" stroke-width="4.5" stroke-linecap="round"/>
    <path d="M8 0q8 8 16 0" fill="none" stroke="#241d2b" stroke-width="4.5" stroke-linecap="round"/>
    <path d="M-7 20q7 6 14 0" fill="none" stroke="#241d2b" stroke-width="4" stroke-linecap="round"/></g></g>
      <!-- crescent moon + zzz -->
      <path d="M196 110a26 26 0 1 0 12 24 20 20 0 0 1-12-24Z" fill="#ffe27b"/>
      <text x="300" y="150" font-family="Arial" font-size="34" font-weight="700" fill="#cfc4f0">z</text>
      <text x="330" y="125" font-family="Arial" font-size="26" font-weight="700" fill="#cfc4f0">z</text>
</svg>