<svg xmlns="http://www.w3.org/2000/svg" viewBox="0 0 500 430">
  <defs>
    <linearGradient id="bg" x1="0" y1="0" x2="0" y2="1"><stop stop-color="#a83232"/><stop offset="1" stop-color="#3a1010"/></linearGradient>
    <radialGradient id="spot" cx=".5" cy=".42" r=".62"><stop stop-color="#ffc0a8" stop-opacity=".5"/><stop offset="1" stop-color="#ffc0a8" stop-opacity="0"/></radialGradient>
  </defs>
  <rect width="500" height="430" fill="url(#bg)"/>
  <path transform="translate(330 110)" d="M0 -6L1.6800000000000002 -1.6800000000000002 6 0 1.6800000000000002 1.6800000000000002 0 6 -1.6800000000000002 1.6800000000000002 -6 0 -1.6800000000000002 -1.6800000000000002Z" fill="#ffd86a"/><path transform="translate(360 90)" d="M0 -4L1.12 -1.12 4 0 1.12 1.12 0 4 -1.12 1.12 -4 0 -1.12 -1.12Z" fill="#ffd86a"/><path transform="translate(300 95)" d="M0 -4L1.12 -1.12 4 0 1.12 1.12 0 4 -1.12 1.12 -4 0 -1.12 -1.12Z" fill="#ffd86a"/>
  <ellipse cx="250" cy="210" rx="235" ry="205" fill="url(#spot)"/>
  <ellipse cx="250" cy="378" rx="190" ry="30" fill="#000" opacity=".16"/>
  <g transform="translate(250 235) rotate(0) scale(1)">
  <path d="M-96 36C-96-58-24-104 36-92 116-76 116 24 92 70 64 122-96 130-96 36Z" fill="#7a2222"/>
  <g stroke="#806244" stroke-width="6" stroke-linecap="round" opacity=".85">
    <path d="M-74 18-96-6M-58-28-74-58M-24-42-28-80M22-40 24-80M58-30 76-58M84-6 108-22"/>
  </g>
  <ellipse cx="26" cy="34" rx="84" ry="72" fill="#ef8170"/>
  <ellipse cx="32" cy="56" rx="56" ry="44" fill="#f7a896" opacity=".55"/>
  <path d="M88 30c30 0 44 18 42 36-2 16-20 24-40 20Z" fill="#ef8170"/>
  <circle cx="126" cy="50" r="7" fill="#241d2b"/>
  <ellipse cx="66" cy="64" rx="15" ry="9" fill="#ea8f7a" opacity=".5"/>
  <g transform="translate(40 18) scale(.82)">
    <circle cx="-16" cy="0" r="10" fill="#fff" stroke="#241d2b" stroke-width="3"/>
    <circle cx="16" cy="0" r="10" fill="#fff" stroke="#241d2b" stroke-width="3"/>
    <circle cx="-16" cy="1" r="4.5" fill="#241d2b"/><circle cx="16" cy="1" r="4.5" fill="#241d2b"/>
    <circle cx="-13.5" cy="-1.5" r="2.025" fill="#fff"/><circle cx="18.5" cy="-1.5" r="2.025" fill="#fff"/>
    <ellipse cx="0" cy="25" rx="7" ry="9" fill="#241d2b"/></g></g>
      <!-- firecracker spark fuse -->
      <g transform="translate(316 230)"><rect x="-10" y="-6" width="20" height="46" rx="5" fill="#d94545"/><path d="M0-6q10-22 22-20" fill="none" stroke="#5a3c22" stroke-width="4"/></g>
      <path d="M340 196l5 14 14 5-14 5-5 14-5-14-14-5 14-5Z" fill="#ffe27b"/>
</svg>