<svg xmlns="http://www.w3.org/2000/svg" viewBox="0 0 500 430">
  <defs>
    <linearGradient id="bg" x1="0" y1="0" x2="0" y2="1"><stop stop-color="#3a6f8f"/><stop offset="1" stop-color="#14303f"/></linearGradient>
    <radialGradient id="spot" cx=".5" cy=".42" r=".62"><stop stop-color="#e2f7ff" stop-opacity=".5"/><stop offset="1" stop-color="#e2f7ff" stop-opacity="0"/></radialGradient>
  </defs>
  <rect width="500" height="430" fill="url(#bg)"/>
  <path transform="translate(110 110)" d="M0 -4L1.12 -1.12 4 0 1.12 1.12 0 4 -1.12 1.12 -4 0 -1.12 -1.12Z" fill="#fff"/><path transform="translate(392 120)" d="M0 -4L1.12 -1.12 4 0 1.12 1.12 0 4 -1.12 1.12 -4 0 -1.12 -1.12Z" fill="#fff"/><path transform="translate(402 296)" d="M0 -3L0.8400000000000001 -0.8400000000000001 3 0 0.8400000000000001 0.8400000000000001 0 3 -0.8400000000000001 0.8400000000000001 -3 0 -0.8400000000000001 -0.8400000000000001Z" fill="#fff"/>
  <ellipse cx="250" cy="210" rx="235" ry="205" fill="url(#spot)"/>
  <ellipse cx="250" cy="378" rx="190" ry="30" fill="#000" opacity=".16"/>
  <g transform="translate(250 235) rotate(0) scale(1)">
  <path d="M-96 36C-96-58-24-104 36-92 116-76 116 24 92 70 64 122-96 130-96 36Z" fill="#34596a"/>
  <g stroke="#806244" stroke-width="6" stroke-linecap="round" opacity=".85">
    <path d="M-74 18-96-6M-58-28-74-58M-24-42-28-80M22-40 24-80M58-30 76-58M84-6 108-22"/>
  </g>
  <ellipse cx="26" cy="34" rx="84" ry="72" fill="#f2d8b2"/>
  <ellipse cx="32" cy="56" rx="56" ry="44" fill="#fbe9cf" opacity=".55"/>
  <path d="M88 30c30 0 44 18 42 36-2 16-20 24-40 20Z" fill="#f2d8b2"/>
  <circle cx="126" cy="50" r="7" fill="#241d2b"/>
  <ellipse cx="66" cy="64" rx="15" ry="9" fill="#ea8f7a" opacity=".5"/>
  <g transform="translate(40 18) scale(.82)">
    <path d="M-16-7c-7-7-17 2-7 9l7 7 7-7c10-7 0-16-7-9Z" fill="#ea8f7a"/>
    <path d="M16-7c-7-7-17 2-7 9l7 7 7-7c10-7 0-16-7-9Z" fill="#ea8f7a"/>
    <path d="M-12 22q12 9 24 0" fill="none" stroke="#241d2b" stroke-width="4.5" stroke-linecap="round"/></g></g>
      <!-- rainbow tuft -->
      <g transform="translate(196 120)" fill="none" stroke-width="9" stroke-linecap="round"><path d="M-34 0a34 34 0 0 1 68 0" stroke="#ff6b6b"/><path d="M-20 0a20 20 0 0 1 40 0" stroke="#ffe27b"/></g>
</svg>