<svg xmlns="http://www.w3.org/2000/svg" viewBox="0 0 500 430">
  <defs>
    <linearGradient id="bg" x1="0" y1="0" x2="0" y2="1"><stop stop-color="#33323e"/><stop offset="1" stop-color="#121117"/></linearGradient>
    <radialGradient id="spot" cx=".5" cy=".42" r=".62"><stop stop-color="#9aa6b4" stop-opacity=".5"/><stop offset="1" stop-color="#9aa6b4" stop-opacity="0"/></radialGradient>
  </defs>
  <rect width="500" height="430" fill="url(#bg)"/>
  <path transform="translate(120 300)" d="M0 -4L1.12 -1.12 4 0 1.12 1.12 0 4 -1.12 1.12 -4 0 -1.12 -1.12Z" fill="#9aa6b4"/><path transform="translate(380 300)" d="M0 -4L1.12 -1.12 4 0 1.12 1.12 0 4 -1.12 1.12 -4 0 -1.12 -1.12Z" fill="#9aa6b4"/>
  <ellipse cx="250" cy="210" rx="235" ry="205" fill="url(#spot)"/>
  <ellipse cx="250" cy="378" rx="190" ry="30" fill="#000" opacity=".16"/>
  <g transform="translate(250 235) rotate(0) scale(1)">
  <path d="M-96 36C-96-58-24-104 36-92 116-76 116 24 92 70 64 122-96 130-96 36Z" fill="#2b2a36"/>
  <g stroke="#806244" stroke-width="6" stroke-linecap="round" opacity=".85">
    <path d="M-74 18-96-6M-58-28-74-58M-24-42-28-80M22-40 24-80M58-30 76-58M84-6 108-22"/>
  </g>
  <ellipse cx="26" cy="34" rx="84" ry="72" fill="#8c8c98"/>
  <ellipse cx="32" cy="56" rx="56" ry="44" fill="#a3a3ad" opacity=".55"/>
  <path d="M88 30c30 0 44 18 42 36-2 16-20 24-40 20Z" fill="#8c8c98"/>
  <circle cx="126" cy="50" r="7" fill="#241d2b"/>
  <ellipse cx="66" cy="64" rx="15" ry="9" fill="#ea8f7a" opacity=".5"/>
  <g transform="translate(40 18) scale(.82)">
    <path d="M-23-6 -10 6M-23 6 -10-6" stroke="#241d2b" stroke-width="4.5" stroke-linecap="round"/>
    <path d="M10-6 23 6M10 6 23-6" stroke="#241d2b" stroke-width="4.5" stroke-linecap="round"/>
    <path d="M-11 22q11 5 12-3q3 8 13 2" fill="none" stroke="#241d2b" stroke-width="4" stroke-linecap="round"/></g></g>
      <!-- tiny grim-reaper hood + scythe -->
      <path d="M120 150c-6-60 80-92 116-44-30-12-92-2-90 60Z" fill="#2b2a36" opacity=".85"/>
      <g transform="translate(330 150)"><path d="M0-40v120" stroke="#6a5238" stroke-width="6"/><path d="M0-40q40 2 44 34-30-16-44-10Z" fill="#cfd6df" stroke="#241d2b" stroke-width="2"/></g>
</svg>