<svg xmlns="http://www.w3.org/2000/svg" viewBox="0 0 500 430">
  <defs>
    <linearGradient id="bg" x1="0" y1="0" x2="0" y2="1"><stop stop-color="#c44b86"/><stop offset="1" stop-color="#3f1428"/></linearGradient>
    <radialGradient id="spot" cx=".5" cy=".42" r=".62"><stop stop-color="#ffd2ec" stop-opacity=".5"/><stop offset="1" stop-color="#ffd2ec" stop-opacity="0"/></radialGradient>
  </defs>
  <rect width="500" height="430" fill="url(#bg)"/>
  
  <ellipse cx="250" cy="210" rx="235" ry="205" fill="url(#spot)"/>
  <ellipse cx="250" cy="378" rx="190" ry="30" fill="#000" opacity=".16"/>
  <g transform="translate(250 235) rotate(0) scale(1)">
  <path d="M-96 36C-96-58-24-104 36-92 116-76 116 24 92 70 64 122-96 130-96 36Z" fill="#9c3a68"/>
  <g stroke="#806244" stroke-width="6" stroke-linecap="round" opacity=".85">
    <path d="M-74 18-96-6M-58-28-74-58M-24-42-28-80M22-40 24-80M58-30 76-58M84-6 108-22"/>
  </g>
  <ellipse cx="26" cy="34" rx="84" ry="72" fill="#f2a8cc"/>
  <ellipse cx="32" cy="56" rx="56" ry="44" fill="#fbcde2" opacity=".55"/>
  <path d="M88 30c30 0 44 18 42 36-2 16-20 24-40 20Z" fill="#f2a8cc"/>
  <circle cx="126" cy="50" r="7" fill="#241d2b"/>
  <ellipse cx="66" cy="64" rx="15" ry="9" fill="#ea8f7a" opacity=".5"/>
  <g transform="translate(40 18) scale(.82)">
    <circle cx="-16" cy="0" r="9" fill="#241d2b"/><circle cx="16" cy="0" r="9" fill="#241d2b"/>
    <circle cx="-13.5" cy="-2.5" r="1.8" fill="#fff"/><circle cx="18.5" cy="-2.5" r="1.8" fill="#fff"/>
    <path d="M-13 20q13 12 26 0" fill="none" stroke="#241d2b" stroke-width="4.5" stroke-linecap="round"/></g></g>
      <!-- bow topper + bubblegum bubble -->
      <g transform="translate(196 116)"><path d="M-6 0C-46-30-52 22-10 12M6 0c40-30 46 22 10 12" fill="#ff7ab0" stroke="#241d2b" stroke-width="2.5"/><circle r="8" fill="#e85b96"/></g>
      <circle cx="300" cy="244" r="22" fill="#ff9ec8" opacity=".85" stroke="#241d2b" stroke-width="2"/>
</svg>