<svg xmlns="http://www.w3.org/2000/svg" viewBox="0 0 500 430">
  <defs>
    <linearGradient id="bg" x1="0" y1="0" x2="0" y2="1"><stop stop-color="#c79a1e"/><stop offset="1" stop-color="#403010"/></linearGradient>
    <radialGradient id="spot" cx=".5" cy=".42" r=".62"><stop stop-color="#fff0a8" stop-opacity=".5"/><stop offset="1" stop-color="#fff0a8" stop-opacity="0"/></radialGradient>
  </defs>
  <rect width="500" height="430" fill="url(#bg)"/>
  <g stroke="#ffe27b" stroke-width="6" stroke-linecap="round" opacity=".7"><path d="M196 60v-26M150 86 130 70M242 86l20-16"/></g>
  <ellipse cx="250" cy="210" rx="235" ry="205" fill="url(#spot)"/>
  <ellipse cx="250" cy="378" rx="190" ry="30" fill="#000" opacity=".16"/>
  <g transform="translate(250 235) rotate(0) scale(1)">
  <path d="M-96 36C-96-58-24-104 36-92 116-76 116 24 92 70 64 122-96 130-96 36Z" fill="#9c7416"/>
  <g stroke="#806244" stroke-width="6" stroke-linecap="round" opacity=".85">
    <path d="M-74 18-96-6M-58-28-74-58M-24-42-28-80M22-40 24-80M58-30 76-58M84-6 108-22"/>
  </g>
  <ellipse cx="26" cy="34" rx="84" ry="72" fill="#f6dd6a"/>
  <ellipse cx="32" cy="56" rx="56" ry="44" fill="#fbeca0" opacity=".55"/>
  <path d="M88 30c30 0 44 18 42 36-2 16-20 24-40 20Z" fill="#f6dd6a"/>
  <circle cx="126" cy="50" r="7" fill="#241d2b"/>
  <ellipse cx="66" cy="64" rx="15" ry="9" fill="#ea8f7a" opacity=".5"/>
  <g transform="translate(40 18) scale(.82)">
    <circle cx="-16" cy="0" r="8" fill="#241d2b"/><circle cx="16" cy="0" r="8" fill="#241d2b"/>
    <circle cx="-13.5" cy="-2.5" r="1.8" fill="#fff"/><circle cx="18.5" cy="-2.5" r="1.8" fill="#fff"/>
    <path d="M-10 19q10 8 20 0" fill="none" stroke="#241d2b" stroke-width="4" stroke-linecap="round"/></g></g>
      <!-- little sun buddy -->
      <g transform="translate(322 240)"><circle r="22" fill="#ffd24a" stroke="#241d2b" stroke-width="2"/><g stroke="#ffd24a" stroke-width="5" stroke-linecap="round"><path d="M0-32v-8M0 32v8M-32 0h-8M32 0h8M-23-23l-6-6M23 23l6 6M23-23l6-6M-23 23l-6 6"/></g></g>
</svg>