<svg xmlns="http://www.w3.org/2000/svg" viewBox="0 0 500 430">
  <defs>
    <linearGradient id="bg" x1="0" y1="0" x2="0" y2="1"><stop stop-color="#2a5a9c"/><stop offset="1" stop-color="#11233f"/></linearGradient>
    <radialGradient id="spot" cx=".5" cy=".42" r=".62"><stop stop-color="#bcd8ff" stop-opacity=".5"/><stop offset="1" stop-color="#bcd8ff" stop-opacity="0"/></radialGradient>
  </defs>
  <rect width="500" height="430" fill="url(#bg)"/>
  
  <ellipse cx="250" cy="210" rx="235" ry="205" fill="url(#spot)"/>
  <ellipse cx="250" cy="378" rx="190" ry="30" fill="#000" opacity=".16"/>
  <g transform="translate(250 235) rotate(0) scale(1)">
  <path d="M-96 36C-96-58-24-104 36-92 116-76 116 24 92 70 64 122-96 130-96 36Z" fill="#274a7e"/>
  <g stroke="#806244" stroke-width="6" stroke-linecap="round" opacity=".85">
    <path d="M-74 18-96-6M-58-28-74-58M-24-42-28-80M22-40 24-80M58-30 76-58M84-6 108-22"/>
  </g>
  <ellipse cx="26" cy="34" rx="84" ry="72" fill="#9cc0f0"/>
  <ellipse cx="32" cy="56" rx="56" ry="44" fill="#c4dbfa" opacity=".55"/>
  <path d="M88 30c30 0 44 18 42 36-2 16-20 24-40 20Z" fill="#9cc0f0"/>
  <circle cx="126" cy="50" r="7" fill="#241d2b"/>
  <ellipse cx="66" cy="64" rx="15" ry="9" fill="#ea8f7a" opacity=".5"/>
  <g transform="translate(40 18) scale(.82)">
    <circle cx="-16" cy="0" r="9" fill="#241d2b"/><circle cx="16" cy="0" r="9" fill="#241d2b"/>
    <circle cx="-13.5" cy="-2.5" r="1.8" fill="#fff"/><circle cx="18.5" cy="-2.5" r="1.8" fill="#fff"/>
    <path d="M-13 20q13 12 26 0" fill="none" stroke="#241d2b" stroke-width="4.5" stroke-linecap="round"/></g></g>
      <!-- holding a blueberry -->
      <circle cx="316" cy="250" r="26" fill="#3f5fb0"/><circle cx="309" cy="243" r="7" fill="#8aa6e8" opacity=".7"/>
      <path d="M316 224q-4-12 8-14" fill="none" stroke="#3a7a3a" stroke-width="4"/>
</svg>