<svg xmlns="http://www.w3.org/2000/svg" viewBox="0 0 500 430">
  <defs>
    <linearGradient id="bg" x1="0" y1="0" x2="0" y2="1"><stop stop-color="#b25e23"/><stop offset="1" stop-color="#3f2410"/></linearGradient>
    <radialGradient id="spot" cx=".5" cy=".42" r=".62"><stop stop-color="#ffd9a0" stop-opacity=".5"/><stop offset="1" stop-color="#ffd9a0" stop-opacity="0"/></radialGradient>
  </defs>
  <rect width="500" height="430" fill="url(#bg)"/>
  
  <ellipse cx="250" cy="210" rx="235" ry="205" fill="url(#spot)"/>
  <ellipse cx="250" cy="378" rx="190" ry="30" fill="#000" opacity=".16"/>
  <g transform="translate(250 235) rotate(0) scale(1)">
  <path d="M-150 60C-150-78-60-140 30-128 132-114 150 8 120 86 90 150-150 178-150 60Z" fill="#7d3f17"/>
  <g stroke="#806244" stroke-width="7" stroke-linecap="round" opacity=".85">
    <path d="M-120 30-150-2M-104-18-128-58M-70-42-86-92M-30-54-36-108M16-54 18-110M58-46 74-96M96-28 122-64M118 2 152-18"/>
  </g>
  <ellipse cx="36" cy="44" rx="120" ry="100" fill="#f0a85c"/>
  <ellipse cx="44" cy="74" rx="78" ry="60" fill="#f6dcb6" opacity=".55"/>
  <path d="M120 36c40 2 60 26 58 50-2 22-26 34-54 30Z" fill="#f0a85c"/>
  <circle cx="171" cy="64" r="9" fill="#241d2b"/>
  <ellipse cx="86" cy="88" rx="20" ry="12" fill="#ea8f7a" opacity=".5"/>
  <g transform="translate(70 40)">
    <path d="M-24 0q8 8 16 0" fill="none" stroke="#241d2b" stroke-width="4.5" stroke-linecap="round"/>
    <path d="M8 0q8 8 16 0" fill="none" stroke="#241d2b" stroke-width="4.5" stroke-linecap="round"/>
    <path d="M-7 20q7 6 14 0" fill="none" stroke="#241d2b" stroke-width="4" stroke-linecap="round"/></g></g>
      <g transform="translate(322 252)"><path d="M-28-18h48v34a18 18 0 0 1-18 18h-12a18 18 0 0 1-18-18Z" fill="#f4f0e8" stroke="#241d2b" stroke-width="3"/><path d="M20-10h10a13 13 0 0 1 0 26h-10" fill="none" stroke="#241d2b" stroke-width="3"/><path d="M-14-30q-4-10 4-16M2-30q-4-10 4-16" fill="none" stroke="#fff" stroke-width="3" opacity=".6"/></g>
      <g transform="translate(300 250) scale(1 1)">
    <ellipse rx="14" ry="12.6" fill="#e3b988"/>
    <circle cx="7" cy="-3" r="11.9" fill="#e3b988"/>
  </g>
</svg>