<svg xmlns="http://www.w3.org/2000/svg" viewBox="0 0 500 430">
  <defs>
    <linearGradient id="bg" x1="0" y1="0" x2="0" y2="1"><stop stop-color="#a13a36"/><stop offset="1" stop-color="#371311"/></linearGradient>
    <radialGradient id="spot" cx=".5" cy=".42" r=".62"><stop stop-color="#ffc7a6" stop-opacity=".5"/><stop offset="1" stop-color="#ffc7a6" stop-opacity="0"/></radialGradient>
  </defs>
  <rect width="500" height="430" fill="url(#bg)"/>
  
  <ellipse cx="250" cy="210" rx="235" ry="205" fill="url(#spot)"/>
  <ellipse cx="250" cy="378" rx="190" ry="30" fill="#000" opacity=".16"/>
  <g transform="translate(250 235) rotate(0) scale(1)">
  <path d="M-150 60C-150-78-60-140 30-128 132-114 150 8 120 86 90 150-150 178-150 60Z" fill="#7a2a26"/>
  <g stroke="#806244" stroke-width="7" stroke-linecap="round" opacity=".85">
    <path d="M-120 30-150-2M-104-18-128-58M-70-42-86-92M-30-54-36-108M16-54 18-110M58-46 74-96M96-28 122-64M118 2 152-18"/>
  </g>
  <ellipse cx="36" cy="44" rx="120" ry="100" fill="#ef8a72"/>
  <ellipse cx="44" cy="74" rx="78" ry="60" fill="#f6dcb6" opacity=".55"/>
  <path d="M120 36c40 2 60 26 58 50-2 22-26 34-54 30Z" fill="#ef8a72"/>
  <circle cx="171" cy="64" r="9" fill="#241d2b"/>
  <ellipse cx="86" cy="88" rx="20" ry="12" fill="#ea8f7a" opacity=".5"/>
  <g transform="translate(70 40)">
    <path d="M-26-4q9 6 18 1" fill="none" stroke="#241d2b" stroke-width="4.5" stroke-linecap="round"/>
    <path d="M8-3q9 5 18-1" fill="none" stroke="#241d2b" stroke-width="4.5" stroke-linecap="round"/>
    <path d="M-10 18q14 7 24-3" fill="none" stroke="#241d2b" stroke-width="4" stroke-linecap="round"/></g></g>
      <!-- bushy beard under snout -->
      <path d="M250 286c20 10 44 12 70 2 8 40-12 70-36 70s-44-30-34-72Z" fill="#7a4a30"/>
      <path d="M256 292q34 12 64 0" fill="none" stroke="#5e3622" stroke-width="3"/>
</svg>