<svg xmlns="http://www.w3.org/2000/svg" viewBox="0 0 500 430">
  <defs>
    <linearGradient id="bg" x1="0" y1="0" x2="0" y2="1"><stop stop-color="#3a2a3f"/><stop offset="1" stop-color="#160e1b"/></linearGradient>
    <radialGradient id="spot" cx=".5" cy=".42" r=".62"><stop stop-color="#ff8a5c" stop-opacity=".5"/><stop offset="1" stop-color="#ff8a5c" stop-opacity="0"/></radialGradient>
  </defs>
  <rect width="500" height="430" fill="url(#bg)"/>
  <g opacity=".55" stroke="#ffce6a" stroke-width="5" stroke-linecap="round"><path d="M360 70l28-24M398 92l32-12M392 140l34 6"/></g>
  <ellipse cx="250" cy="210" rx="235" ry="205" fill="url(#spot)"/>
  <ellipse cx="250" cy="378" rx="190" ry="30" fill="#000" opacity=".16"/>
  <g transform="translate(210 235) rotate(-4) scale(1)">
  <path d="M-150 60C-150-78-60-140 30-128 132-114 150 8 120 86 90 150-150 178-150 60Z" fill="#4a3a2f"/>
  <g stroke="#806244" stroke-width="7" stroke-linecap="round" opacity=".85">
    <path d="M-120 30-150-2M-104-18-128-58M-70-42-86-92M-30-54-36-108M16-54 18-110M58-46 74-96M96-28 122-64M118 2 152-18"/>
  </g>
  <ellipse cx="36" cy="44" rx="120" ry="100" fill="#ecc69c"/>
  <ellipse cx="44" cy="74" rx="78" ry="60" fill="#f6dcb6" opacity=".55"/>
  <path d="M120 36c40 2 60 26 58 50-2 22-26 34-54 30Z" fill="#ecc69c"/>
  <circle cx="171" cy="64" r="9" fill="#241d2b"/>
  <ellipse cx="86" cy="88" rx="20" ry="12" fill="#ea8f7a" opacity=".5"/>
  <g transform="translate(70 40)">
    <circle cx="-16" cy="-2" r="11" fill="#fff" stroke="#241d2b" stroke-width="3"/>
    <circle cx="16" cy="-2" r="11" fill="#fff" stroke="#241d2b" stroke-width="3"/>
    <circle cx="-16" cy="0" r="4.5" fill="#241d2b"/>
    <circle cx="16" cy="0" r="4.5" fill="#241d2b"/>
    <path d="M-18 17q18 22 36 0q-18 9-36 0Z" fill="#d96b6b" stroke="#241d2b" stroke-width="3.5" stroke-linejoin="round"/></g></g>
      <g transform="translate(300 122) rotate(18)"><rect x="-30" y="-34" width="74" height="60" rx="14" fill="#b8392f"/><rect x="-18" y="-22" width="40" height="20" rx="6" fill="#2b2330"/><path d="M44-22h150l28 22-28 22H44Z" fill="#cfd6df" stroke="#2b2330" stroke-width="5"/><g fill="#2b2330"><path d="M70-30l10 8-10 8M110-30l10 8-10 8M150-30l10 8-10 8M190-30l8 8-8 8"/></g><path d="M-30 26q-22 6 -30 28" fill="none" stroke="#2b2330" stroke-width="9" stroke-linecap="round"/></g>
      <g transform="translate(250 196) scale(1 1)">
    <ellipse rx="19" ry="17.1" fill="#e3b988"/>
    <circle cx="9.5" cy="-3" r="16.15" fill="#e3b988"/>
  </g>
</svg>