<svg xmlns="http://www.w3.org/2000/svg" viewBox="0 0 500 430">
  <defs>
    <linearGradient id="bg" x1="0" y1="0" x2="0" y2="1"><stop stop-color="#243a64"/><stop offset="1" stop-color="#0e1830"/></linearGradient>
    <radialGradient id="spot" cx=".5" cy=".42" r=".62"><stop stop-color="#d6e2ff" stop-opacity=".5"/><stop offset="1" stop-color="#d6e2ff" stop-opacity="0"/></radialGradient>
  </defs>
  <rect width="500" height="430" fill="url(#bg)"/>
  <path transform="translate(392 120)" d="M0 -4L1.12 -1.12 4 0 1.12 1.12 0 4 -1.12 1.12 -4 0 -1.12 -1.12Z" fill="#fff"/><path transform="translate(110 300)" d="M0 -4L1.12 -1.12 4 0 1.12 1.12 0 4 -1.12 1.12 -4 0 -1.12 -1.12Z" fill="#fff"/>
  <ellipse cx="250" cy="210" rx="235" ry="205" fill="url(#spot)"/>
  <ellipse cx="250" cy="378" rx="190" ry="30" fill="#000" opacity=".16"/>
  <g transform="translate(250 235) rotate(0) scale(1)">
  <path d="M-150 60C-150-78-60-140 30-128 132-114 150 8 120 86 90 150-150 178-150 60Z" fill="#203258"/>
  <g stroke="#806244" stroke-width="7" stroke-linecap="round" opacity=".85">
    <path d="M-120 30-150-2M-104-18-128-58M-70-42-86-92M-30-54-36-108M16-54 18-110M58-46 74-96M96-28 122-64M118 2 152-18"/>
  </g>
  <ellipse cx="36" cy="44" rx="120" ry="100" fill="#c2d2ee"/>
  <ellipse cx="44" cy="74" rx="78" ry="60" fill="#dde7f8" opacity=".55"/>
  <path d="M120 36c40 2 60 26 58 50-2 22-26 34-54 30Z" fill="#c2d2ee"/>
  <circle cx="171" cy="64" r="9" fill="#241d2b"/>
  <ellipse cx="86" cy="88" rx="20" ry="12" fill="#ea8f7a" opacity=".5"/>
  <g transform="translate(70 40)">
    <path d="M-26-4q9 6 18 1" fill="none" stroke="#241d2b" stroke-width="4.5" stroke-linecap="round"/>
    <path d="M8-3q9 5 18-1" fill="none" stroke="#241d2b" stroke-width="4.5" stroke-linecap="round"/>
    <path d="M-10 18q14 7 24-3" fill="none" stroke="#241d2b" stroke-width="4" stroke-linecap="round"/></g></g>
      <path d="M196 150q6-50 -4-84q26 26 24 80Z" fill="#eef4ff" stroke="#241d2b" stroke-width="3"/>
      <!-- top hat -->
      <g transform="translate(186 92)"><rect x="-54" y="6" width="108" height="12" rx="4" fill="#1c1c28"/><rect x="-34" y="-46" width="68" height="56" rx="6" fill="#23232e"/><rect x="-34" y="-8" width="68" height="10" fill="#c8324a"/></g>
      <!-- monocle on right eye -->
      <circle cx="338" cy="270" r="18" fill="none" stroke="#ffd24a" stroke-width="3"/><path d="M352 284l8 30" stroke="#ffd24a" stroke-width="3"/>
      <!-- bowtie -->
      <path d="M300 320l-22-12v24ZM300 320l22-12v24Z" fill="#c8324a" stroke="#241d2b" stroke-width="2"/>
</svg>