<svg xmlns="http://www.w3.org/2000/svg" viewBox="0 0 500 430">
  <defs>
    <linearGradient id="bg" x1="0" y1="0" x2="0" y2="1"><stop stop-color="#7a3a1e"/><stop offset="1" stop-color="#2c1408"/></linearGradient>
    <radialGradient id="spot" cx=".5" cy=".42" r=".62"><stop stop-color="#ffb16a" stop-opacity=".5"/><stop offset="1" stop-color="#ffb16a" stop-opacity="0"/></radialGradient>
  </defs>
  <rect width="500" height="430" fill="url(#bg)"/>
  <g fill="#ffce6a" opacity=".8"><path transform="translate(360 110)" d="M0 -10L2.8000000000000003 -2.8000000000000003 10 0 2.8000000000000003 2.8000000000000003 0 10 -2.8000000000000003 2.8000000000000003 -10 0 -2.8000000000000003 -2.8000000000000003Z" fill="#fff"/><path transform="translate(120 130)" d="M0 -6L1.6800000000000002 -1.6800000000000002 6 0 1.6800000000000002 1.6800000000000002 0 6 -1.6800000000000002 1.6800000000000002 -6 0 -1.6800000000000002 -1.6800000000000002Z" fill="#fff"/><path transform="translate(400 290)" d="M0 -7L1.9600000000000002 -1.9600000000000002 7 0 1.9600000000000002 1.9600000000000002 0 7 -1.9600000000000002 1.9600000000000002 -7 0 -1.9600000000000002 -1.9600000000000002Z" fill="#fff"/></g>
  <ellipse cx="250" cy="210" rx="235" ry="205" fill="url(#spot)"/>
  <ellipse cx="250" cy="378" rx="190" ry="30" fill="#000" opacity=".16"/>
  <g transform="translate(220 235) rotate(0) scale(1)">
  <path d="M-150 60C-150-78-60-140 30-128 132-114 150 8 120 86 90 150-150 178-150 60Z" fill="#5a2a14"/>
  <g stroke="#806244" stroke-width="7" stroke-linecap="round" opacity=".85">
    <path d="M-120 30-150-2M-104-18-128-58M-70-42-86-92M-30-54-36-108M16-54 18-110M58-46 74-96M96-28 122-64M118 2 152-18"/>
  </g>
  <ellipse cx="36" cy="44" rx="120" ry="100" fill="#e8895a"/>
  <ellipse cx="44" cy="74" rx="78" ry="60" fill="#f6dcb6" opacity=".55"/>
  <path d="M120 36c40 2 60 26 58 50-2 22-26 34-54 30Z" fill="#e8895a"/>
  <circle cx="171" cy="64" r="9" fill="#241d2b"/>
  <ellipse cx="86" cy="88" rx="20" ry="12" fill="#ea8f7a" opacity=".5"/>
  <g transform="translate(70 40)">
    <circle cx="-16" cy="-2" r="11" fill="#fff" stroke="#241d2b" stroke-width="3"/>
    <circle cx="16" cy="-2" r="11" fill="#fff" stroke="#241d2b" stroke-width="3"/>
    <circle cx="-16" cy="1" r="4.5" fill="#241d2b"/>
    <circle cx="16" cy="1" r="4.5" fill="#241d2b"/>
    <path d="M-18 17q18 22 36 0q-18 9-36 0Z" fill="#d96b6b" stroke="#241d2b" stroke-width="3.5" stroke-linejoin="round"/></g></g>
      <!-- wrecking ball on chain -->
      <path d="M360 60l-30 90" stroke="#8a8a96" stroke-width="6"/>
      <circle cx="326" cy="172" r="44" fill="#3a3a46" stroke="#241d2b" stroke-width="3"/><circle cx="312" cy="158" r="12" fill="#5a5a66" opacity=".7"/>
      <g stroke-width="8" stroke-linecap="round" opacity=".9"><path d="M326 130l8-30" stroke="#ffce6a"/><path d="M368 172l30-6" stroke="#ff8a5c"/><path d="M300 210l-10 28" stroke="#ffce6a"/></g>
</svg>