<svg xmlns="http://www.w3.org/2000/svg" viewBox="0 0 500 430">
  <defs>
    <linearGradient id="bg" x1="0" y1="0" x2="0" y2="1"><stop stop-color="#3a4a8e"/><stop offset="1" stop-color="#161e3c"/></linearGradient>
    <radialGradient id="spot" cx=".5" cy=".42" r=".62"><stop stop-color="#cdd6ff" stop-opacity=".5"/><stop offset="1" stop-color="#cdd6ff" stop-opacity="0"/></radialGradient>
  </defs>
  <rect width="500" height="430" fill="url(#bg)"/>
  
  <ellipse cx="250" cy="210" rx="235" ry="205" fill="url(#spot)"/>
  <ellipse cx="250" cy="378" rx="190" ry="30" fill="#000" opacity=".16"/>
  <g transform="translate(250 240) rotate(0) scale(1.5)">
  <path d="M-150 60C-150-78-60-140 30-128 132-114 150 8 120 86 90 150-150 178-150 60Z" fill="#2c386e"/>
  <g stroke="#806244" stroke-width="7" stroke-linecap="round" opacity=".85">
    <path d="M-120 30-150-2M-104-18-128-58M-70-42-86-92M-30-54-36-108M16-54 18-110M58-46 74-96M96-28 122-64M118 2 152-18"/>
  </g>
  <ellipse cx="36" cy="44" rx="120" ry="100" fill="#9aa6ee"/>
  <ellipse cx="44" cy="74" rx="78" ry="60" fill="#f6dcb6" opacity=".55"/>
  <path d="M120 36c40 2 60 26 58 50-2 22-26 34-54 30Z" fill="#9aa6ee"/>
  <circle cx="171" cy="64" r="9" fill="#241d2b"/>
  <ellipse cx="86" cy="88" rx="20" ry="12" fill="#ea8f7a" opacity=".5"/>
  <g transform="translate(70 40)">
    <circle cx="-16" cy="0" r="9" fill="#241d2b"/><circle cx="16" cy="0" r="9" fill="#241d2b"/>
    <circle cx="-13.5" cy="-2.5" r="1.8" fill="#fff"/><circle cx="18.5" cy="-2.5" r="1.8" fill="#fff"/>
    <path d="M-13 20q13 12 26 0" fill="none" stroke="#241d2b" stroke-width="4.5" stroke-linecap="round"/></g></g>
      <path transform="translate(120 100)" d="M0 -7L1.9600000000000002 -1.9600000000000002 7 0 1.9600000000000002 1.9600000000000002 0 7 -1.9600000000000002 1.9600000000000002 -7 0 -1.9600000000000002 -1.9600000000000002Z" fill="#ffe27b"/><path transform="translate(250 70)" d="M0 -6L1.6800000000000002 -1.6800000000000002 6 0 1.6800000000000002 1.6800000000000002 0 6 -1.6800000000000002 1.6800000000000002 -6 0 -1.6800000000000002 -1.6800000000000002Z" fill="#ffe27b"/><path transform="translate(388 100)" d="M0 -7L1.9600000000000002 -1.9600000000000002 7 0 1.9600000000000002 1.9600000000000002 0 7 -1.9600000000000002 1.9600000000000002 -7 0 -1.9600000000000002 -1.9600000000000002Z" fill="#ffe27b"/>
</svg>