<svg xmlns="http://www.w3.org/2000/svg" viewBox="0 0 500 430">
  <defs>
    <linearGradient id="bg" x1="0" y1="0" x2="0" y2="1"><stop stop-color="#5a2c52"/><stop offset="1" stop-color="#1c0f1f"/></linearGradient>
    <radialGradient id="spot" cx=".5" cy=".42" r=".62"><stop stop-color="#ffd1f0" stop-opacity=".5"/><stop offset="1" stop-color="#ffd1f0" stop-opacity="0"/></radialGradient>
  </defs>
  <rect width="500" height="430" fill="url(#bg)"/>
  <path transform="translate(100 100)" d="M0 -6L1.6800000000000002 -1.6800000000000002 6 0 1.6800000000000002 1.6800000000000002 0 6 -1.6800000000000002 1.6800000000000002 -6 0 -1.6800000000000002 -1.6800000000000002Z" fill="#ff7ad1"/><path transform="translate(410 120)" d="M0 -5L1.4000000000000001 -1.4000000000000001 5 0 1.4000000000000001 1.4000000000000001 0 5 -1.4000000000000001 1.4000000000000001 -5 0 -1.4000000000000001 -1.4000000000000001Z" fill="#7be0ff"/><path transform="translate(380 300)" d="M0 -6L1.6800000000000002 -1.6800000000000002 6 0 1.6800000000000002 1.6800000000000002 0 6 -1.6800000000000002 1.6800000000000002 -6 0 -1.6800000000000002 -1.6800000000000002Z" fill="#ffe27b"/><path transform="translate(120 300)" d="M0 -5L1.4000000000000001 -1.4000000000000001 5 0 1.4000000000000001 1.4000000000000001 0 5 -1.4000000000000001 1.4000000000000001 -5 0 -1.4000000000000001 -1.4000000000000001Z" fill="#7be08e"/>
  <ellipse cx="250" cy="210" rx="235" ry="205" fill="url(#spot)"/>
  <ellipse cx="250" cy="378" rx="190" ry="30" fill="#000" opacity=".16"/>
  <g transform="translate(215 235) rotate(3) scale(1)">
  <path d="M-150 60C-150-78-60-140 30-128 132-114 150 8 120 86 90 150-150 178-150 60Z" fill="#5a3a52"/>
  <g stroke="#806244" stroke-width="7" stroke-linecap="round" opacity=".85">
    <path d="M-120 30-150-2M-104-18-128-58M-70-42-86-92M-30-54-36-108M16-54 18-110M58-46 74-96M96-28 122-64M118 2 152-18"/>
  </g>
  <ellipse cx="36" cy="44" rx="120" ry="100" fill="#ecc69c"/>
  <ellipse cx="44" cy="74" rx="78" ry="60" fill="#f6dcb6" opacity=".55"/>
  <path d="M120 36c40 2 60 26 58 50-2 22-26 34-54 30Z" fill="#ecc69c"/>
  <circle cx="171" cy="64" r="9" fill="#241d2b"/>
  <ellipse cx="86" cy="88" rx="20" ry="12" fill="#ea8f7a" opacity=".5"/>
  <g transform="translate(70 40)">
    <circle cx="-16" cy="0" r="10" fill="#fff" stroke="#241d2b" stroke-width="3"/>
    <circle cx="16" cy="0" r="10" fill="#fff" stroke="#241d2b" stroke-width="3"/>
    <circle cx="-16" cy="0" r="4.5" fill="#241d2b"/><circle cx="16" cy="0" r="4.5" fill="#241d2b"/>
    <circle cx="-13.5" cy="-2.5" r="2.025" fill="#fff"/><circle cx="18.5" cy="-2.5" r="2.025" fill="#fff"/>
    <ellipse cx="0" cy="25" rx="7" ry="9" fill="#241d2b"/></g></g>
      <g transform="translate(330 175)"><circle r="46" fill="#2b2330"/><circle cx="-14" cy="-14" r="12" fill="#5a4a52"/><path d="M30-34c14-16 4-34 22-44" fill="none" stroke="#2b2330" stroke-width="6"/><g stroke-width="8" stroke-linecap="round"><path d="M40-40l40-40" stroke="#ff7ad1"/><path d="M52-10l54-8" stroke="#ffe27b"/><path d="M40 30l46 30" stroke="#7be0ff"/><path d="M8 46l8 56" stroke="#7be08e"/><path d="M-30 40l-40 38" stroke="#ff9a5c"/></g></g>
</svg>