<svg xmlns="http://www.w3.org/2000/svg" viewBox="0 0 500 430">
  <defs>
    <linearGradient id="bg" x1="0" y1="0" x2="0" y2="1"><stop stop-color="#3a2c74"/><stop offset="1" stop-color="#14102e"/></linearGradient>
    <radialGradient id="spot" cx=".5" cy=".42" r=".62"><stop stop-color="#d6c6ff" stop-opacity=".5"/><stop offset="1" stop-color="#d6c6ff" stop-opacity="0"/></radialGradient>
  </defs>
  <rect width="500" height="430" fill="url(#bg)"/>
  <path transform="translate(110 120)" d="M0 -5L1.4000000000000001 -1.4000000000000001 5 0 1.4000000000000001 1.4000000000000001 0 5 -1.4000000000000001 1.4000000000000001 -5 0 -1.4000000000000001 -1.4000000000000001Z" fill="#fff"/><path transform="translate(392 120)" d="M0 -5L1.4000000000000001 -1.4000000000000001 5 0 1.4000000000000001 1.4000000000000001 0 5 -1.4000000000000001 1.4000000000000001 -5 0 -1.4000000000000001 -1.4000000000000001Z" fill="#fff"/><path transform="translate(400 300)" d="M0 -4L1.12 -1.12 4 0 1.12 1.12 0 4 -1.12 1.12 -4 0 -1.12 -1.12Z" fill="#fff"/><path transform="translate(120 300)" d="M0 -4L1.12 -1.12 4 0 1.12 1.12 0 4 -1.12 1.12 -4 0 -1.12 -1.12Z" fill="#fff"/>
  <ellipse cx="250" cy="210" rx="235" ry="205" fill="url(#spot)"/>
  <ellipse cx="250" cy="378" rx="190" ry="30" fill="#000" opacity=".16"/>
  <g transform="translate(150 210) scale(-1 1)">
    <path d="M0 0c40-26 92-30 132-6-30 6-30 6-54 18 36 0 60 8 84 28-34 0-40 0-66 10 30 6 48 18 64 40-44-8-92-22-130-52Z" fill="#e8dcff" stroke="#b9a6f0" stroke-width="3"/>
  </g>
      <g transform="translate(250 235) rotate(0) scale(1)">
  <path d="M-150 60C-150-78-60-140 30-128 132-114 150 8 120 86 90 150-150 178-150 60Z" fill="#2e2460"/>
  <g stroke="#806244" stroke-width="7" stroke-linecap="round" opacity=".85">
    <path d="M-120 30-150-2M-104-18-128-58M-70-42-86-92M-30-54-36-108M16-54 18-110M58-46 74-96M96-28 122-64M118 2 152-18"/>
  </g>
  <ellipse cx="36" cy="44" rx="120" ry="100" fill="#b6a2ee"/>
  <ellipse cx="44" cy="74" rx="78" ry="60" fill="#f6dcb6" opacity=".55"/>
  <path d="M120 36c40 2 60 26 58 50-2 22-26 34-54 30Z" fill="#b6a2ee"/>
  <circle cx="171" cy="64" r="9" fill="#241d2b"/>
  <ellipse cx="86" cy="88" rx="20" ry="12" fill="#ea8f7a" opacity=".5"/>
  <g transform="translate(70 40)">
    <circle cx="-16" cy="0" r="9" fill="#241d2b"/><circle cx="16" cy="0" r="9" fill="#241d2b"/>
    <circle cx="-13.5" cy="-2.5" r="1.8" fill="#fff"/><circle cx="18.5" cy="-2.5" r="1.8" fill="#fff"/>
    <path d="M-13 20q13 12 26 0" fill="none" stroke="#241d2b" stroke-width="4.5" stroke-linecap="round"/></g></g>
      <g transform="translate(338 150) rotate(28)"><path d="M0 0v96" stroke="#6a4a2a" stroke-width="8" stroke-linecap="round"/><g transform="translate(0 -6)"><path transform="translate(0 0)" d="M0 -22L6.16 -6.16 22 0 6.16 6.16 0 22 -6.16 6.16 -22 0 -6.16 -6.16Z" fill="#ffe27b"/><path transform="translate(-18 12)" d="M0 -8L2.24 -2.24 8 0 2.24 2.24 0 8 -2.24 2.24 -8 0 -2.24 -2.24Z" fill="#fff"/><path transform="translate(16 14)" d="M0 -8L2.24 -2.24 8 0 2.24 2.24 0 8 -2.24 2.24 -8 0 -2.24 -2.24Z" fill="#fff"/></g></g>
</svg>