<svg xmlns="http://www.w3.org/2000/svg" viewBox="0 0 500 430">
  <defs>
    <linearGradient id="bg" x1="0" y1="0" x2="0" y2="1"><stop stop-color="#1f6a8e"/><stop offset="1" stop-color="#0c2c3c"/></linearGradient>
    <radialGradient id="spot" cx=".5" cy=".42" r=".62"><stop stop-color="#bdeeff" stop-opacity=".5"/><stop offset="1" stop-color="#bdeeff" stop-opacity="0"/></radialGradient>
  </defs>
  <rect width="500" height="430" fill="url(#bg)"/>
  <g fill="#bdeeff" opacity=".6"><circle cx="120" cy="120" r="8"/><circle cx="150" cy="160" r="5"/><circle cx="392" cy="130" r="7"/><circle cx="410" cy="180" r="4"/></g>
  <ellipse cx="250" cy="210" rx="235" ry="205" fill="url(#spot)"/>
  <ellipse cx="250" cy="378" rx="190" ry="30" fill="#000" opacity=".16"/>
  <g transform="translate(250 220) rotate(0) scale(1)">
  <path d="M-150 60C-150-78-60-140 30-128 132-114 150 8 120 86 90 150-150 178-150 60Z" fill="#1c5670"/>
  <g stroke="#806244" stroke-width="7" stroke-linecap="round" opacity=".85">
    <path d="M-120 30-150-2M-104-18-128-58M-70-42-86-92M-30-54-36-108M16-54 18-110M58-46 74-96M96-28 122-64M118 2 152-18"/>
  </g>
  <ellipse cx="36" cy="44" rx="120" ry="100" fill="#7ec8d8"/>
  <ellipse cx="44" cy="74" rx="78" ry="60" fill="#f6dcb6" opacity=".55"/>
  <path d="M120 36c40 2 60 26 58 50-2 22-26 34-54 30Z" fill="#7ec8d8"/>
  <circle cx="171" cy="64" r="9" fill="#241d2b"/>
  <ellipse cx="86" cy="88" rx="20" ry="12" fill="#ea8f7a" opacity=".5"/>
  <g transform="translate(70 40)">
    <path d="M-16-7c-7-7-17 2-7 9l7 7 7-7c10-7 0-16-7-9Z" fill="#ea8f7a"/>
    <path d="M16-7c-7-7-17 2-7 9l7 7 7-7c10-7 0-16-7-9Z" fill="#ea8f7a"/>
    <path d="M-12 22q12 9 24 0" fill="none" stroke="#241d2b" stroke-width="4.5" stroke-linecap="round"/></g></g>
      <!-- scaly tail sweeping down/right -->
      <path d="M300 300q70 10 90 60 -20 50 -70 30 30-50 -20-90Z" fill="#3aa6c8" stroke="#241d2b" stroke-width="3"/>
      <path d="M380 360q40-12 50 14M380 380q40 6 44 34" fill="#5cc0dc" stroke="#241d2b" stroke-width="2"/>
      <g stroke="#2a8aa8" stroke-width="2" opacity=".6"><path d="M312 300q20 12 40 8M320 320q22 12 44 6"/></g>
</svg>