<svg xmlns="http://www.w3.org/2000/svg" viewBox="0 0 500 430">
  <defs>
    <linearGradient id="bg" x1="0" y1="0" x2="0" y2="1"><stop stop-color="#2c2c6e"/><stop offset="1" stop-color="#10102c"/></linearGradient>
    <radialGradient id="spot" cx=".5" cy=".42" r=".62"><stop stop-color="#c6c6ff" stop-opacity=".5"/><stop offset="1" stop-color="#c6c6ff" stop-opacity="0"/></radialGradient>
  </defs>
  <rect width="500" height="430" fill="url(#bg)"/>
  <path transform="translate(110 110)" d="M0 -4L1.12 -1.12 4 0 1.12 1.12 0 4 -1.12 1.12 -4 0 -1.12 -1.12Z" fill="#fff"/><path transform="translate(392 120)" d="M0 -4L1.12 -1.12 4 0 1.12 1.12 0 4 -1.12 1.12 -4 0 -1.12 -1.12Z" fill="#fff"/>
  <ellipse cx="250" cy="210" rx="235" ry="205" fill="url(#spot)"/>
  <ellipse cx="250" cy="378" rx="190" ry="30" fill="#000" opacity=".16"/>
  <!-- spiral portal -->
      <g transform="translate(340 200)" fill="none" stroke-linecap="round"><path d="M0 0a14 14 0 1 1 -10 14" stroke="#8a6ee0" stroke-width="10"/><path d="M-4 28a40 40 0 1 1 36-50" stroke="#6a4ad0" stroke-width="12"/><path d="M-30 50a66 66 0 1 1 64-86" stroke="#4a2cb0" stroke-width="14"/></g>
      <g transform="translate(200 235) rotate(12) scale(0.9)">
  <path d="M-150 60C-150-78-60-140 30-128 132-114 150 8 120 86 90 150-150 178-150 60Z" fill="#2c2c6e"/>
  <g stroke="#806244" stroke-width="7" stroke-linecap="round" opacity=".85">
    <path d="M-120 30-150-2M-104-18-128-58M-70-42-86-92M-30-54-36-108M16-54 18-110M58-46 74-96M96-28 122-64M118 2 152-18"/>
  </g>
  <ellipse cx="36" cy="44" rx="120" ry="100" fill="#a6a6ee"/>
  <ellipse cx="44" cy="74" rx="78" ry="60" fill="#f6dcb6" opacity=".55"/>
  <path d="M120 36c40 2 60 26 58 50-2 22-26 34-54 30Z" fill="#a6a6ee"/>
  <circle cx="171" cy="64" r="9" fill="#241d2b"/>
  <ellipse cx="86" cy="88" rx="20" ry="12" fill="#ea8f7a" opacity=".5"/>
  <g transform="translate(70 40)">
    <circle cx="-16" cy="0" r="10" fill="#fff" stroke="#241d2b" stroke-width="3"/>
    <circle cx="16" cy="0" r="10" fill="#fff" stroke="#241d2b" stroke-width="3"/>
    <circle cx="-16" cy="0" r="4.5" fill="#241d2b"/><circle cx="16" cy="0" r="4.5" fill="#241d2b"/>
    <circle cx="-13.5" cy="-2.5" r="2.025" fill="#fff"/><circle cx="18.5" cy="-2.5" r="2.025" fill="#fff"/>
    <ellipse cx="0" cy="25" rx="7" ry="9" fill="#241d2b"/></g></g>
</svg>