<svg xmlns="http://www.w3.org/2000/svg" viewBox="0 0 500 430">
  <defs>
    <linearGradient id="bg" x1="0" y1="0" x2="0" y2="1"><stop stop-color="#2a3a4a"/><stop offset="1" stop-color="#10181c"/></linearGradient>
    <radialGradient id="spot" cx=".5" cy=".42" r=".62"><stop stop-color="#aaccdc" stop-opacity=".5"/><stop offset="1" stop-color="#aaccdc" stop-opacity="0"/></radialGradient>
  </defs>
  <rect width="500" height="430" fill="url(#bg)"/>
  
  <ellipse cx="250" cy="210" rx="235" ry="205" fill="url(#spot)"/>
  <ellipse cx="250" cy="378" rx="190" ry="30" fill="#000" opacity=".16"/>
  <g transform="translate(250 235) rotate(0) scale(1)">
  <path d="M-150 60C-150-78-60-140 30-128 132-114 150 8 120 86 90 150-150 178-150 60Z" fill="#243038"/>
  <g stroke="#806244" stroke-width="7" stroke-linecap="round" opacity=".85">
    <path d="M-120 30-150-2M-104-18-128-58M-70-42-86-92M-30-54-36-108M16-54 18-110M58-46 74-96M96-28 122-64M118 2 152-18"/>
  </g>
  <ellipse cx="36" cy="44" rx="120" ry="100" fill="#8aa6b4"/>
  <ellipse cx="44" cy="74" rx="78" ry="60" fill="#f6dcb6" opacity=".55"/>
  <path d="M120 36c40 2 60 26 58 50-2 22-26 34-54 30Z" fill="#8aa6b4"/>
  <circle cx="171" cy="64" r="9" fill="#241d2b"/>
  <ellipse cx="86" cy="88" rx="20" ry="12" fill="#ea8f7a" opacity=".5"/>
  <g transform="translate(70 40)">
    <circle cx="-16" cy="0" r="11" fill="#fff" stroke="#241d2b" stroke-width="3"/>
    <circle cx="16" cy="0" r="11" fill="#fff" stroke="#241d2b" stroke-width="3"/>
    <circle cx="-15" cy="3" r="4" fill="#241d2b"/><circle cx="17" cy="3" r="4" fill="#241d2b"/>
    <path d="M-12 26q12-8 24 0" fill="none" stroke="#241d2b" stroke-width="4" stroke-linecap="round"/></g></g>
      <!-- CCTV camera watching from corner -->
      <g transform="translate(360 120) rotate(18)"><rect x="-44" y="-16" width="80" height="32" rx="10" fill="#3a4650"/><circle cx="34" cy="0" r="12" fill="#1c2228"/><circle cx="34" cy="0" r="5" fill="#ff5b5b"/><path d="M-44 0h-20v-22" stroke="#3a4650" stroke-width="6" fill="none"/></g>
      <path d="M386 132l-70 70" stroke="#ff5b5b" stroke-width="2" opacity=".4"/>
</svg>