<svg xmlns="http://www.w3.org/2000/svg" viewBox="0 0 500 430">
  <defs>
    <linearGradient id="bg" x1="0" y1="0" x2="0" y2="1"><stop stop-color="#7a3a2a"/><stop offset="1" stop-color="#2a1008"/></linearGradient>
    <radialGradient id="spot" cx=".5" cy=".42" r=".62"><stop stop-color="#ffc08a" stop-opacity=".5"/><stop offset="1" stop-color="#ffc08a" stop-opacity="0"/></radialGradient>
  </defs>
  <rect width="500" height="430" fill="url(#bg)"/>
  <g stroke="#ffce6a" stroke-width="6" stroke-linecap="round" opacity=".7"><path d="M70 220H10M90 250H30M80 282H20"/></g>
  <ellipse cx="250" cy="210" rx="235" ry="205" fill="url(#spot)"/>
  <ellipse cx="250" cy="378" rx="190" ry="30" fill="#000" opacity=".16"/>
  <!-- flame trail -->
      <path d="M120 235q-70-4 -110 25 60 0 60 14 -60 0 -60 22 80-6 130-16Z" fill="#ff8a3c" opacity=".9"/>
      <path d="M120 245q-46-2 -74 16 40 0 40 8 -40 0 -40 14 54-4 86-10Z" fill="#ffd24a"/>
      <g transform="translate(270 235) rotate(-8) scale(1)">
  <path d="M-150 60C-150-78-60-140 30-128 132-114 150 8 120 86 90 150-150 178-150 60Z" fill="#5a281c"/>
  <g stroke="#806244" stroke-width="7" stroke-linecap="round" opacity=".85">
    <path d="M-120 30-150-2M-104-18-128-58M-70-42-86-92M-30-54-36-108M16-54 18-110M58-46 74-96M96-28 122-64M118 2 152-18"/>
  </g>
  <ellipse cx="36" cy="44" rx="120" ry="100" fill="#e69478"/>
  <ellipse cx="44" cy="74" rx="78" ry="60" fill="#f6dcb6" opacity=".55"/>
  <path d="M120 36c40 2 60 26 58 50-2 22-26 34-54 30Z" fill="#e69478"/>
  <circle cx="171" cy="64" r="9" fill="#241d2b"/>
  <ellipse cx="86" cy="88" rx="20" ry="12" fill="#ea8f7a" opacity=".5"/>
  <g transform="translate(70 40)">
    <path d="M-27-6 -9-3" stroke="#241d2b" stroke-width="5" stroke-linecap="round"/>
    <path d="M27-6 9-3" stroke="#241d2b" stroke-width="5" stroke-linecap="round"/>
    <circle cx="-16" cy="5" r="7.5" fill="#241d2b"/><circle cx="16" cy="5" r="7.5" fill="#241d2b"/>
    <path d="M-11 23h22" stroke="#241d2b" stroke-width="4.5" stroke-linecap="round"/></g></g>
      <path d="M450 218q-58 18 -78 12q12-30 78-12Z" fill="#eef4ff" stroke="#241d2b" stroke-width="3"/>
</svg>