<svg xmlns="http://www.w3.org/2000/svg" viewBox="0 0 500 430">
  <defs>
    <linearGradient id="bg" x1="0" y1="0" x2="0" y2="1"><stop stop-color="#3b2c63"/><stop offset="1" stop-color="#170f2e"/></linearGradient>
    <radialGradient id="spot" cx=".5" cy=".42" r=".62"><stop stop-color="#ffe27b" stop-opacity=".5"/><stop offset="1" stop-color="#ffe27b" stop-opacity="0"/></radialGradient>
  </defs>
  <rect width="500" height="430" fill="url(#bg)"/>
  <path transform="translate(90 100)" d="M0 -4L1.12 -1.12 4 0 1.12 1.12 0 4 -1.12 1.12 -4 0 -1.12 -1.12Z" fill="#ffe27b"/><path transform="translate(420 120)" d="M0 -5L1.4000000000000001 -1.4000000000000001 5 0 1.4000000000000001 1.4000000000000001 0 5 -1.4000000000000001 1.4000000000000001 -5 0 -1.4000000000000001 -1.4000000000000001Z" fill="#ffe27b"/><path transform="translate(380 300)" d="M0 -4L1.12 -1.12 4 0 1.12 1.12 0 4 -1.12 1.12 -4 0 -1.12 -1.12Z" fill="#ffe27b"/><path transform="translate(110 320)" d="M0 -4L1.12 -1.12 4 0 1.12 1.12 0 4 -1.12 1.12 -4 0 -1.12 -1.12Z" fill="#ffe27b"/>
  <ellipse cx="250" cy="210" rx="235" ry="205" fill="url(#spot)"/>
  <ellipse cx="250" cy="378" rx="190" ry="30" fill="#000" opacity=".16"/>
  <g transform="translate(250 250) rotate(0) scale(1)">
  <path d="M-150 60C-150-78-60-140 30-128 132-114 150 8 120 86 90 150-150 178-150 60Z" fill="#4a3a66"/>
  <g stroke="#806244" stroke-width="7" stroke-linecap="round" opacity=".85">
    <path d="M-120 30-150-2M-104-18-128-58M-70-42-86-92M-30-54-36-108M16-54 18-110M58-46 74-96M96-28 122-64M118 2 152-18"/>
  </g>
  <ellipse cx="36" cy="44" rx="120" ry="100" fill="#ecc69c"/>
  <ellipse cx="44" cy="74" rx="78" ry="60" fill="#f6dcb6" opacity=".55"/>
  <path d="M120 36c40 2 60 26 58 50-2 22-26 34-54 30Z" fill="#ecc69c"/>
  <circle cx="171" cy="64" r="9" fill="#241d2b"/>
  <ellipse cx="86" cy="88" rx="20" ry="12" fill="#ea8f7a" opacity=".5"/>
  <g transform="translate(70 40)">
    <circle cx="-16" cy="0" r="9" fill="#241d2b"/><circle cx="16" cy="0" r="9" fill="#241d2b"/>
    <circle cx="-13.5" cy="-2.5" r="1.8" fill="#fff"/><circle cx="18.5" cy="-2.5" r="1.8" fill="#fff"/>
    <path d="M-13 20q13 12 26 0" fill="none" stroke="#241d2b" stroke-width="4.5" stroke-linecap="round"/></g></g>
      <g transform="translate(176 92)"><path d="M-58-6 -30 22 0-30 30 22 58-6 44 70H-44Z" fill="#ffd24a" stroke="#241d2b" stroke-width="5"/><circle cx="-30" cy="-4" r="7" fill="#ff7a8a"/><circle cx="0" cy="-30" r="8" fill="#74d6ff"/><circle cx="30" cy="-4" r="7" fill="#7be08e"/><path d="M-44 54h88" stroke="#241d2b" stroke-width="5"/></g>
      <g transform="translate(348 150) rotate(12)"><path d="M0 0v150" stroke="#c9a14a" stroke-width="10" stroke-linecap="round"/><circle cy="-8" r="16" fill="#ffe27b" stroke="#241d2b" stroke-width="4"/></g>
      <g transform="translate(338 212) scale(1 1)">
    <ellipse rx="17" ry="15.3" fill="#e3b988"/>
    <circle cx="8.5" cy="-3" r="14.45" fill="#e3b988"/>
  </g>
</svg>