<svg xmlns="http://www.w3.org/2000/svg" viewBox="0 0 500 430">
  <defs>
    <linearGradient id="bg" x1="0" y1="0" x2="0" y2="1"><stop stop-color="#1f5e8c"/><stop offset="1" stop-color="#0c2740"/></linearGradient>
    <radialGradient id="spot" cx=".5" cy=".42" r=".62"><stop stop-color="#bfeaff" stop-opacity=".5"/><stop offset="1" stop-color="#bfeaff" stop-opacity="0"/></radialGradient>
  </defs>
  <rect width="500" height="430" fill="url(#bg)"/>
  <path transform="translate(380 90)" d="M0 -4L1.12 -1.12 4 0 1.12 1.12 0 4 -1.12 1.12 -4 0 -1.12 -1.12Z" fill="#fff"/><path transform="translate(120 110)" d="M0 -3L0.8400000000000001 -0.8400000000000001 3 0 0.8400000000000001 0.8400000000000001 0 3 -0.8400000000000001 0.8400000000000001 -3 0 -0.8400000000000001 -0.8400000000000001Z" fill="#fff"/><path transform="translate(420 250)" d="M0 -3L0.8400000000000001 -0.8400000000000001 3 0 0.8400000000000001 0.8400000000000001 0 3 -0.8400000000000001 0.8400000000000001 -3 0 -0.8400000000000001 -0.8400000000000001Z" fill="#fff"/>
  <ellipse cx="250" cy="210" rx="235" ry="205" fill="url(#spot)"/>
  <ellipse cx="250" cy="378" rx="190" ry="30" fill="#000" opacity=".16"/>
  <g fill="none" stroke-width="15" opacity=".9">
        <path d="M70 300C120 90 380 90 430 300" stroke="#ff6b6b"/><path d="M92 300C138 122 362 122 408 300" stroke="#ffb24a"/>
        <path d="M114 300C156 154 344 154 386 300" stroke="#ffe27b"/><path d="M136 300C174 186 326 186 364 300" stroke="#7be08e"/>
        <path d="M158 300C192 218 308 218 342 300" stroke="#5fb0ff"/></g>
      <g transform="translate(250 268) rotate(0) scale(0.92)">
  <path d="M-150 60C-150-78-60-140 30-128 132-114 150 8 120 86 90 150-150 178-150 60Z" fill="#2a4f74"/>
  <g stroke="#806244" stroke-width="7" stroke-linecap="round" opacity=".85">
    <path d="M-120 30-150-2M-104-18-128-58M-70-42-86-92M-30-54-36-108M16-54 18-110M58-46 74-96M96-28 122-64M118 2 152-18"/>
  </g>
  <ellipse cx="36" cy="44" rx="120" ry="100" fill="#f0d3ad"/>
  <ellipse cx="44" cy="74" rx="78" ry="60" fill="#f6dcb6" opacity=".55"/>
  <path d="M120 36c40 2 60 26 58 50-2 22-26 34-54 30Z" fill="#f0d3ad"/>
  <circle cx="171" cy="64" r="9" fill="#241d2b"/>
  <ellipse cx="86" cy="88" rx="20" ry="12" fill="#ea8f7a" opacity=".5"/>
  <g transform="translate(70 40)">
    <path d="M-16-7c-7-7-17 2-7 9l7 7 7-7c10-7 0-16-7-9Z" fill="#ea8f7a"/>
    <path d="M16-7c-7-7-17 2-7 9l7 7 7-7c10-7 0-16-7-9Z" fill="#ea8f7a"/>
    <path d="M-12 22q12 9 24 0" fill="none" stroke="#241d2b" stroke-width="4.5" stroke-linecap="round"/></g></g>
</svg>