<svg xmlns="http://www.w3.org/2000/svg" viewBox="0 0 500 430">
  <defs>
    <linearGradient id="bg" x1="0" y1="0" x2="0" y2="1"><stop stop-color="#3a2c6a"/><stop offset="1" stop-color="#15102c"/></linearGradient>
    <radialGradient id="spot" cx=".5" cy=".42" r=".62"><stop stop-color="#e6d6ff" stop-opacity=".5"/><stop offset="1" stop-color="#e6d6ff" stop-opacity="0"/></radialGradient>
  </defs>
  <rect width="500" height="430" fill="url(#bg)"/>
  
  <ellipse cx="250" cy="210" rx="235" ry="205" fill="url(#spot)"/>
  <ellipse cx="250" cy="378" rx="190" ry="30" fill="#000" opacity=".16"/>
  <g transform="translate(270 235) rotate(0) scale(1)">
  <path d="M-150 60C-150-78-60-140 30-128 132-114 150 8 120 86 90 150-150 178-150 60Z" fill="#2c245a"/>
  <g stroke="#806244" stroke-width="7" stroke-linecap="round" opacity=".85">
    <path d="M-120 30-150-2M-104-18-128-58M-70-42-86-92M-30-54-36-108M16-54 18-110M58-46 74-96M96-28 122-64M118 2 152-18"/>
  </g>
  <ellipse cx="36" cy="44" rx="120" ry="100" fill="#b6a2e8"/>
  <ellipse cx="44" cy="74" rx="78" ry="60" fill="#f6dcb6" opacity=".55"/>
  <path d="M120 36c40 2 60 26 58 50-2 22-26 34-54 30Z" fill="#b6a2e8"/>
  <circle cx="171" cy="64" r="9" fill="#241d2b"/>
  <ellipse cx="86" cy="88" rx="20" ry="12" fill="#ea8f7a" opacity=".5"/>
  <g transform="translate(70 40)">
    <circle cx="-16" cy="0" r="9" fill="#241d2b"/><circle cx="16" cy="0" r="9" fill="#241d2b"/>
    <circle cx="-13.5" cy="-2.5" r="1.8" fill="#fff"/><circle cx="18.5" cy="-2.5" r="1.8" fill="#fff"/>
    <path d="M-13 20q13 12 26 0" fill="none" stroke="#241d2b" stroke-width="4.5" stroke-linecap="round"/></g></g>
      <!-- rainbow mane streaming back over quills -->
      <g fill="none" stroke-width="11" stroke-linecap="round"><path d="M150 150q-90 20 -110 90" stroke="#ff6b6b"/><path d="M165 165q-90 26 -104 96" stroke="#ffb24a"/><path d="M182 182q-86 30 -96 100" stroke="#ffe27b"/><path d="M200 200q-80 32 -86 104" stroke="#7be08e"/><path d="M220 220q-74 34 -76 108" stroke="#5fb0ff"/></g>
</svg>