<svg xmlns="http://www.w3.org/2000/svg" viewBox="0 0 500 430" role="img" aria-labelledby="title desc">
  <title id="title">Aim Again</title>
  <desc id="desc">Original Unhinged Hedgehogs illustration: target.</desc>
  <defs>
    <linearGradient id="bg" x1="24" y1="18" x2="476" y2="412" gradientUnits="userSpaceOnUse">
      <stop stop-color="#a785d8"/>
      <stop offset="1" stop-color="#51376f"/>
    </linearGradient>
    <radialGradient id="glow"><stop stop-color="#fff8d8" stop-opacity=".72"/><stop offset="1" stop-color="#fff8d8" stop-opacity="0"/></radialGradient>
  </defs>
  <rect width="500" height="430" rx="34" fill="url(#bg)"/>
  <circle cx="267" cy="273" r="80" fill="#63d6c5" opacity=".22"/>
  <circle cx="154" cy="219" r="60" fill="#fff8d8" opacity=".16"/>
  <path d="M0 337c82-48 146-23 235 4 96 29 167 27 265-20v109H0Z" fill="#51376f" opacity=".45"/>
  <circle cx="255" cy="238" r="180" fill="url(#glow)" opacity=".38"/>
  <g transform="translate(250 208) rotate(-4) scale(1 1)">
    <path d="M-167 112-151 52l-47-28 57-22-23-57 62 12 8-64 53 37 37-54 33 56 57-30 4 65 64-5-27 59 56 26-49 40 35 54-65 7 11 63-61-21-23 61-46-46-45 47-24-60-61 23 9-64-65-5 34-55Z" fill="#242c3d"/>
    <ellipse cx="25" cy="87" rx="143" ry="111" fill="#edc69d"/>
    <circle cx="74" cy="53" r="12" fill="#182431"/>
    <circle cx="78" cy="49" r="3.5" fill="#fff8d8"/>
    <path d="M126 88c27-2 45 8 58 26-18 19-43 24-70 16Z" fill="#182431"/>
    <path d="M-20 126c38 25 82 27 116 3" fill="none" stroke="#a55756" stroke-width="9" stroke-linecap="round"/>
    <path d="M-65 145c-20 20-27 41-21 64M52 164c14 18 18 37 12 56" fill="none" stroke="#242c3d" stroke-width="13" stroke-linecap="round"/>
  </g>
  <g transform="translate(390 132) rotate(8) scale(.68)">
    <circle r="70" fill="#63d6c5" stroke="#51376f" stroke-width="9"/><circle r="40" fill="none" stroke="#51376f" stroke-width="9"/><circle r="12" fill="#51376f"/><path d="M0-88v36M0 52v36M-88 0h36M52 0h36" stroke="#51376f" stroke-width="9"/>
  </g>
  <path d="M24 34c74-26 135-24 202 7M476 396c-78 22-143 17-206-12" fill="none" stroke="#fff8d8" stroke-width="7" stroke-linecap="round" opacity=".58"/>
</svg>
