<svg xmlns="http://www.w3.org/2000/svg" viewBox="0 0 500 430">
  <defs>
    <linearGradient id="bg" x1="0" y1="0" x2="0" y2="1"><stop stop-color="#7a2040"/><stop offset="1" stop-color="#2a0c18"/></linearGradient>
    <radialGradient id="spot" cx=".5" cy=".42" r=".62"><stop stop-color="#ffb8c8" stop-opacity=".5"/><stop offset="1" stop-color="#ffb8c8" stop-opacity="0"/></radialGradient>
  </defs>
  <rect width="500" height="430" fill="url(#bg)"/>
  <path transform="translate(392 120)" d="M0 -4L1.12 -1.12 4 0 1.12 1.12 0 4 -1.12 1.12 -4 0 -1.12 -1.12Z" fill="#ffd2dc"/><path transform="translate(110 300)" d="M0 -4L1.12 -1.12 4 0 1.12 1.12 0 4 -1.12 1.12 -4 0 -1.12 -1.12Z" fill="#ffd2dc"/>
  <ellipse cx="250" cy="210" rx="235" ry="205" fill="url(#spot)"/>
  <ellipse cx="250" cy="378" rx="190" ry="30" fill="#000" opacity=".16"/>
  <g transform="translate(250 235) rotate(0) scale(1)">
  <path d="M-150 60C-150-78-60-140 30-128 132-114 150 8 120 86 90 150-150 178-150 60Z" fill="#5e1a32"/>
  <g stroke="#806244" stroke-width="7" stroke-linecap="round" opacity=".85">
    <path d="M-120 30-150-2M-104-18-128-58M-70-42-86-92M-30-54-36-108M16-54 18-110M58-46 74-96M96-28 122-64M118 2 152-18"/>
  </g>
  <ellipse cx="36" cy="44" rx="120" ry="100" fill="#e88aa0"/>
  <ellipse cx="44" cy="74" rx="78" ry="60" fill="#f6dcb6" opacity=".55"/>
  <path d="M120 36c40 2 60 26 58 50-2 22-26 34-54 30Z" fill="#e88aa0"/>
  <circle cx="171" cy="64" r="9" fill="#241d2b"/>
  <ellipse cx="86" cy="88" rx="20" ry="12" fill="#ea8f7a" opacity=".5"/>
  <g transform="translate(70 40)">
    <path d="M-25-1q9-9 18 0" fill="none" stroke="#241d2b" stroke-width="5" stroke-linecap="round"/>
    <circle cx="16" cy="0" r="8.5" fill="#241d2b"/><circle cx="18.5" cy="-2.5" r="2" fill="#fff"/>
    <path d="M-13 19q15 11 26-2" fill="none" stroke="#241d2b" stroke-width="4.5" stroke-linecap="round"/></g></g>
      <!-- rose held to snout -->
      <g transform="translate(346 268)"><circle r="18" fill="#d83a5a" stroke="#241d2b" stroke-width="2"/><path d="M-6-6q6-8 12 0M-6 6q6 8 12 0" stroke="#a82844" stroke-width="2" fill="none"/><path d="M14 8q24 8 30 40" stroke="#3a8a4a" stroke-width="4" fill="none"/><path d="M30 30q14-4 22 4" stroke="#3a8a4a" stroke-width="4" fill="none"/></g>
</svg>