<svg xmlns="http://www.w3.org/2000/svg" viewBox="0 0 500 430">
  <defs>
    <linearGradient id="bg" x1="0" y1="0" x2="0" y2="1"><stop stop-color="#5a4a3a"/><stop offset="1" stop-color="#221a14"/></linearGradient>
    <radialGradient id="spot" cx=".5" cy=".42" r=".62"><stop stop-color="#e8d6b8" stop-opacity=".5"/><stop offset="1" stop-color="#e8d6b8" stop-opacity="0"/></radialGradient>
  </defs>
  <rect width="500" height="430" fill="url(#bg)"/>
  
  <ellipse cx="250" cy="210" rx="235" ry="205" fill="url(#spot)"/>
  <ellipse cx="250" cy="378" rx="190" ry="30" fill="#000" opacity=".16"/>
  <g transform="translate(250 235) rotate(0) scale(1)">
  <path d="M-150 60C-150-78-60-140 30-128 132-114 150 8 120 86 90 150-150 178-150 60Z" fill="#463728"/>
  <g stroke="#806244" stroke-width="7" stroke-linecap="round" opacity=".85">
    <path d="M-120 30-150-2M-104-18-128-58M-70-42-86-92M-30-54-36-108M16-54 18-110M58-46 74-96M96-28 122-64M118 2 152-18"/>
  </g>
  <ellipse cx="36" cy="44" rx="120" ry="100" fill="#c2a880"/>
  <ellipse cx="44" cy="74" rx="78" ry="60" fill="#d8c29c" opacity=".55"/>
  <path d="M120 36c40 2 60 26 58 50-2 22-26 34-54 30Z" fill="#c2a880"/>
  <circle cx="171" cy="64" r="9" fill="#241d2b"/>
  <ellipse cx="86" cy="88" rx="20" ry="12" fill="#ea8f7a" opacity=".5"/>
  <g transform="translate(70 40)">
    <path d="M-24 0q8 8 16 0" fill="none" stroke="#241d2b" stroke-width="4.5" stroke-linecap="round"/>
    <path d="M8 0q8 8 16 0" fill="none" stroke="#241d2b" stroke-width="4.5" stroke-linecap="round"/>
    <path d="M-7 20q7 6 14 0" fill="none" stroke="#241d2b" stroke-width="4" stroke-linecap="round"/></g></g>
      <path d="M196 150q4-44 -6-74q22 24 22 70Z" fill="#e8dcc4" stroke="#241d2b" stroke-width="3"/>
      <path d="M180 90l8 6M186 110l6-4" stroke="#9a8460" stroke-width="2"/>
      <!-- knit scarf -->
      <path d="M236 300q40 24 88 8l8 26q-50 18 -104-6Z" fill="#b8543a" stroke="#241d2b" stroke-width="2"/>
      <path d="M318 320l10 56M334 316l14 52" stroke="#b8543a" stroke-width="9" stroke-linecap="round"/>
      <g stroke="#8a3e2a" stroke-width="1.5" opacity=".6"><path d="M250 306v18M270 314v18M290 318v18"/></g>
</svg>