<svg xmlns="http://www.w3.org/2000/svg" viewBox="0 0 500 430">
  <defs>
    <linearGradient id="bg" x1="0" y1="0" x2="0" y2="1"><stop stop-color="#4a2030"/><stop offset="1" stop-color="#1c0d16"/></linearGradient>
    <radialGradient id="spot" cx=".5" cy=".42" r=".62"><stop stop-color="#ff9aa0" stop-opacity=".5"/><stop offset="1" stop-color="#ff9aa0" stop-opacity="0"/></radialGradient>
  </defs>
  <rect width="500" height="430" fill="url(#bg)"/>
  
  <ellipse cx="250" cy="210" rx="235" ry="205" fill="url(#spot)"/>
  <ellipse cx="250" cy="378" rx="190" ry="30" fill="#000" opacity=".16"/>
  <g transform="translate(240 235) rotate(0) scale(1)">
  <path d="M-150 60C-150-78-60-140 30-128 132-114 150 8 120 86 90 150-150 178-150 60Z" fill="#5b3340"/>
  <g stroke="#806244" stroke-width="7" stroke-linecap="round" opacity=".85">
    <path d="M-120 30-150-2M-104-18-128-58M-70-42-86-92M-30-54-36-108M16-54 18-110M58-46 74-96M96-28 122-64M118 2 152-18"/>
  </g>
  <ellipse cx="36" cy="44" rx="120" ry="100" fill="#ecc69c"/>
  <ellipse cx="44" cy="74" rx="78" ry="60" fill="#f6dcb6" opacity=".55"/>
  <path d="M120 36c40 2 60 26 58 50-2 22-26 34-54 30Z" fill="#ecc69c"/>
  <circle cx="171" cy="64" r="9" fill="#241d2b"/>
  <ellipse cx="86" cy="88" rx="20" ry="12" fill="#ea8f7a" opacity=".5"/>
  <g transform="translate(70 40)">
    <path d="M-27-10 -8-2" stroke="#241d2b" stroke-width="5" stroke-linecap="round"/>
    <path d="M27-10 8-2" stroke="#241d2b" stroke-width="5" stroke-linecap="round"/>
    <circle cx="-16" cy="4" r="7.5" fill="#241d2b"/><circle cx="16" cy="4" r="7.5" fill="#241d2b"/>
    <path d="M-12 23q12 8 24 0" fill="none" stroke="#241d2b" stroke-width="4.5" stroke-linecap="round"/></g></g>
      <g transform="translate(330 150) rotate(28)"><path d="M0-86 14 18 0 40-14 18Z" fill="#dfe6ef" stroke="#241d2b" stroke-width="4"/><path d="M-26 40h52M0 40v34" stroke="#241d2b" stroke-width="11" stroke-linecap="round"/><circle cx="0" cy="80" r="8" fill="#c9a14a"/></g>
      <g transform="translate(322 196) scale(1 1)">
    <ellipse rx="18" ry="16.2" fill="#e3b988"/>
    <circle cx="9" cy="-3" r="15.299999999999999" fill="#e3b988"/>
  </g>
</svg>