<svg xmlns="http://www.w3.org/2000/svg" viewBox="0 0 500 430">
  <defs>
    <linearGradient id="bg" x1="0" y1="0" x2="0" y2="1"><stop stop-color="#4a1820"/><stop offset="1" stop-color="#1c080c"/></linearGradient>
    <radialGradient id="spot" cx=".5" cy=".42" r=".62"><stop stop-color="#ff9a9a" stop-opacity=".5"/><stop offset="1" stop-color="#ff9a9a" stop-opacity="0"/></radialGradient>
  </defs>
  <rect width="500" height="430" fill="url(#bg)"/>
  <g stroke="#ff6b6b" stroke-width="5" stroke-linecap="round" opacity=".55"><path d="M60 120l-30-16M70 300l-34 8M440 120l30-16M430 300l34 8"/></g>
  <ellipse cx="250" cy="210" rx="235" ry="205" fill="url(#spot)"/>
  <ellipse cx="250" cy="378" rx="190" ry="30" fill="#000" opacity=".16"/>
  <g transform="translate(280 235) rotate(-3) scale(1)">
  <path d="M-150 60C-150-78-60-140 30-128 132-114 150 8 120 86 90 150-150 178-150 60Z" fill="#3a1218"/>
  <g stroke="#806244" stroke-width="7" stroke-linecap="round" opacity=".85">
    <path d="M-120 30-150-2M-104-18-128-58M-70-42-86-92M-30-54-36-108M16-54 18-110M58-46 74-96M96-28 122-64M118 2 152-18"/>
  </g>
  <ellipse cx="36" cy="44" rx="120" ry="100" fill="#e87a7a"/>
  <ellipse cx="44" cy="74" rx="78" ry="60" fill="#f6dcb6" opacity=".55"/>
  <path d="M120 36c40 2 60 26 58 50-2 22-26 34-54 30Z" fill="#e87a7a"/>
  <circle cx="171" cy="64" r="9" fill="#241d2b"/>
  <ellipse cx="86" cy="88" rx="20" ry="12" fill="#ea8f7a" opacity=".5"/>
  <g transform="translate(70 40)">
    <circle cx="-16" cy="-2" r="11" fill="#fff" stroke="#241d2b" stroke-width="3"/>
    <circle cx="16" cy="-2" r="11" fill="#fff" stroke="#241d2b" stroke-width="3"/>
    <circle cx="-16" cy="1" r="4.5" fill="#241d2b"/>
    <circle cx="16" cy="1" r="4.5" fill="#241d2b"/>
    <path d="M-18 17q18 22 36 0q-18 9-36 0Z" fill="#d96b6b" stroke="#241d2b" stroke-width="3.5" stroke-linejoin="round"/></g></g>
      <g transform="translate(150 200)"><path d="M-44-72 44-72 72-44 72 44 44 72-44 72-72 44-72-44Z" fill="#d62828" stroke="#fff" stroke-width="7"/><path d="M-44-72 44-72 72-44 72 44 44 72-44 72-72 44-72-44Z" fill="none" stroke="#241d2b" stroke-width="4"/><text x="0" y="-2" font-family="Arial Black, Arial, sans-serif" font-size="26" font-weight="900" fill="#fff" text-anchor="middle">SUPER</text><text x="0" y="26" font-family="Arial Black, Arial, sans-serif" font-size="26" font-weight="900" fill="#fff" text-anchor="middle">NOPE</text></g>
      <path transform="translate(400 120)" d="M0 -8L2.24 -2.24 8 0 2.24 2.24 0 8 -2.24 2.24 -8 0 -2.24 -2.24Z" fill="#ffd24a"/><path transform="translate(380 300)" d="M0 -6L1.6800000000000002 -1.6800000000000002 6 0 1.6800000000000002 1.6800000000000002 0 6 -1.6800000000000002 1.6800000000000002 -6 0 -1.6800000000000002 -1.6800000000000002Z" fill="#ffd24a"/>
</svg>