<svg xmlns="http://www.w3.org/2000/svg" viewBox="0 0 500 430">
  <defs>
    <linearGradient id="bg" x1="0" y1="0" x2="0" y2="1"><stop stop-color="#7a2a3a"/><stop offset="1" stop-color="#2c0e16"/></linearGradient>
    <radialGradient id="spot" cx=".5" cy=".42" r=".62"><stop stop-color="#ffaeb8" stop-opacity=".5"/><stop offset="1" stop-color="#ffaeb8" stop-opacity="0"/></radialGradient>
  </defs>
  <rect width="500" height="430" fill="url(#bg)"/>
  <g fill="#ff6b6b" opacity=".7"><path transform="translate(420 300)" d="M0 -10L2.8000000000000003 -2.8000000000000003 10 0 2.8000000000000003 2.8000000000000003 0 10 -2.8000000000000003 2.8000000000000003 -10 0 -2.8000000000000003 -2.8000000000000003Z" fill="#fff"/><path transform="translate(400 320)" d="M0 -6L1.6800000000000002 -1.6800000000000002 6 0 1.6800000000000002 1.6800000000000002 0 6 -1.6800000000000002 1.6800000000000002 -6 0 -1.6800000000000002 -1.6800000000000002Z" fill="#fff"/></g>
  <ellipse cx="250" cy="210" rx="235" ry="205" fill="url(#spot)"/>
  <ellipse cx="250" cy="378" rx="190" ry="30" fill="#000" opacity=".16"/>
  <g transform="translate(220 235) rotate(0) scale(1)">
  <path d="M-150 60C-150-78-60-140 30-128 132-114 150 8 120 86 90 150-150 178-150 60Z" fill="#5a1e2a"/>
  <g stroke="#806244" stroke-width="7" stroke-linecap="round" opacity=".85">
    <path d="M-120 30-150-2M-104-18-128-58M-70-42-86-92M-30-54-36-108M16-54 18-110M58-46 74-96M96-28 122-64M118 2 152-18"/>
  </g>
  <ellipse cx="36" cy="44" rx="120" ry="100" fill="#e8849a"/>
  <ellipse cx="44" cy="74" rx="78" ry="60" fill="#f6dcb6" opacity=".55"/>
  <path d="M120 36c40 2 60 26 58 50-2 22-26 34-54 30Z" fill="#e8849a"/>
  <circle cx="171" cy="64" r="9" fill="#241d2b"/>
  <ellipse cx="86" cy="88" rx="20" ry="12" fill="#ea8f7a" opacity=".5"/>
  <g transform="translate(70 40)">
    <path d="M-27-6 -9-3" stroke="#241d2b" stroke-width="5" stroke-linecap="round"/>
    <path d="M27-6 9-3" stroke="#241d2b" stroke-width="5" stroke-linecap="round"/>
    <circle cx="-16" cy="5" r="7.5" fill="#241d2b"/><circle cx="16" cy="5" r="7.5" fill="#241d2b"/>
    <path d="M-11 23h22" stroke="#241d2b" stroke-width="4.5" stroke-linecap="round"/></g></g>
      <!-- targeting beam -->
      <path d="M300 250 L450 320" stroke="#ff5b5b" stroke-width="4" opacity=".8"/>
      <g transform="translate(450 320)"><circle r="20" fill="none" stroke="#ff5b5b" stroke-width="4"/><path d="M0-28v14M0 14v14M-28 0h14M14 0h14" stroke="#ff5b5b" stroke-width="4"/></g>
</svg>