<svg xmlns="http://www.w3.org/2000/svg" viewBox="0 0 500 430">
  <defs>
    <linearGradient id="bg" x1="0" y1="0" x2="0" y2="1"><stop stop-color="#3a2c7a"/><stop offset="1" stop-color="#141030"/></linearGradient>
    <radialGradient id="spot" cx=".5" cy=".42" r=".62"><stop stop-color="#c6c0ff" stop-opacity=".5"/><stop offset="1" stop-color="#c6c0ff" stop-opacity="0"/></radialGradient>
  </defs>
  <rect width="500" height="430" fill="url(#bg)"/>
  <g stroke="#9a8aff" stroke-width="3" opacity=".5"><path d="M380 250l40 10M384 270l40-4"/></g>
  <ellipse cx="250" cy="210" rx="235" ry="205" fill="url(#spot)"/>
  <ellipse cx="250" cy="378" rx="190" ry="30" fill="#000" opacity=".16"/>
  <g transform="translate(210 235) rotate(0) scale(1)">
  <path d="M-150 60C-150-78-60-140 30-128 132-114 150 8 120 86 90 150-150 178-150 60Z" fill="#2c2260"/>
  <g stroke="#806244" stroke-width="7" stroke-linecap="round" opacity=".85">
    <path d="M-120 30-150-2M-104-18-128-58M-70-42-86-92M-30-54-36-108M16-54 18-110M58-46 74-96M96-28 122-64M118 2 152-18"/>
  </g>
  <ellipse cx="36" cy="44" rx="120" ry="100" fill="#a89aec"/>
  <ellipse cx="44" cy="74" rx="78" ry="60" fill="#f6dcb6" opacity=".55"/>
  <path d="M120 36c40 2 60 26 58 50-2 22-26 34-54 30Z" fill="#a89aec"/>
  <circle cx="171" cy="64" r="9" fill="#241d2b"/>
  <ellipse cx="86" cy="88" rx="20" ry="12" fill="#ea8f7a" opacity=".5"/>
  <g transform="translate(70 40)">
    <circle cx="-16" cy="-2" r="11" fill="#fff" stroke="#241d2b" stroke-width="3"/>
    <circle cx="16" cy="-2" r="11" fill="#fff" stroke="#241d2b" stroke-width="3"/>
    <circle cx="-16" cy="1" r="4.5" fill="#241d2b"/>
    <circle cx="16" cy="1" r="4.5" fill="#241d2b"/>
    <path d="M-18 17q18 22 36 0q-18 9-36 0Z" fill="#d96b6b" stroke="#241d2b" stroke-width="3.5" stroke-linejoin="round"/></g></g>
      <!-- ray gun -->
      <g transform="translate(320 250)"><rect x="-10" y="-10" width="50" height="24" rx="6" fill="#6a5ad0"/><rect x="-26" y="0" width="20" height="34" rx="5" fill="#6a5ad0"/><circle cx="46" cy="2" r="12" fill="#c6c0ff"/></g>
      <!-- shrink cone + tiny hog -->
      <path d="M380 240l70-14v44Z" fill="#c6c0ff" opacity=".35"/>
      <g transform="translate(440 250) scale(.18)"><path d="M-96 36C-96-58-24-104 36-92 116-76 116 24 92 70 64 122-96 130-96 36Z" fill="#2c2260"/><ellipse cx="26" cy="34" rx="84" ry="72" fill="#a89aec"/></g>
</svg>