<svg xmlns="http://www.w3.org/2000/svg" viewBox="0 0 500 430">
  <defs>
    <linearGradient id="bg" x1="0" y1="0" x2="0" y2="1"><stop stop-color="#7a2a1e"/><stop offset="1" stop-color="#2c0c08"/></linearGradient>
    <radialGradient id="spot" cx=".5" cy=".42" r=".62"><stop stop-color="#ffb05a" stop-opacity=".5"/><stop offset="1" stop-color="#ffb05a" stop-opacity="0"/></radialGradient>
  </defs>
  <rect width="500" height="430" fill="url(#bg)"/>
  <g opacity=".8"><path d="M250 380q-30-40 0-80 30 40 0 80Z" fill="#ff8a3c"/><path d="M180 390q-20-30 0-60 20 30 0 60Z" fill="#ffb24a" opacity=".7"/><path d="M320 390q-20-30 0-60 20 30 0 60Z" fill="#ffb24a" opacity=".7"/></g>
  <ellipse cx="250" cy="210" rx="235" ry="205" fill="url(#spot)"/>
  <ellipse cx="250" cy="378" rx="190" ry="30" fill="#000" opacity=".16"/>
  <!-- fiery wings -->
      <path d="M150 230q-70-10 -100 30 50-6 56 6q-40 14 -50 50 60-26 96-50Z" fill="#ff7a2a" stroke="#ffce6a" stroke-width="2"/>
      <path d="M350 230q70-10 100 30 -50-6 -56 6q40 14 50 50 -60-26 -96-50Z" fill="#ff7a2a" stroke="#ffce6a" stroke-width="2"/>
      <g transform="translate(250 235) rotate(0) scale(1)">
  <path d="M-150 60C-150-78-60-140 30-128 132-114 150 8 120 86 90 150-150 178-150 60Z" fill="#a83a1e"/>
  <g stroke="#806244" stroke-width="7" stroke-linecap="round" opacity=".85">
    <path d="M-120 30-150-2M-104-18-128-58M-70-42-86-92M-30-54-36-108M16-54 18-110M58-46 74-96M96-28 122-64M118 2 152-18"/>
  </g>
  <ellipse cx="36" cy="44" rx="120" ry="100" fill="#ffb46a"/>
  <ellipse cx="44" cy="74" rx="78" ry="60" fill="#ffd29a" opacity=".55"/>
  <path d="M120 36c40 2 60 26 58 50-2 22-26 34-54 30Z" fill="#ffb46a"/>
  <circle cx="171" cy="64" r="9" fill="#241d2b"/>
  <ellipse cx="86" cy="88" rx="20" ry="12" fill="#ea8f7a" opacity=".5"/>
  <g transform="translate(70 40)">
    <path d="M-27-6 -9-3" stroke="#241d2b" stroke-width="5" stroke-linecap="round"/>
    <path d="M27-6 9-3" stroke="#241d2b" stroke-width="5" stroke-linecap="round"/>
    <circle cx="-16" cy="5" r="7.5" fill="#241d2b"/><circle cx="16" cy="5" r="7.5" fill="#241d2b"/>
    <path d="M-11 23h22" stroke="#241d2b" stroke-width="4.5" stroke-linecap="round"/></g></g>
      <path transform="translate(120 120)" d="M0 -5L1.4000000000000001 -1.4000000000000001 5 0 1.4000000000000001 1.4000000000000001 0 5 -1.4000000000000001 1.4000000000000001 -5 0 -1.4000000000000001 -1.4000000000000001Z" fill="#ffe27b"/><path transform="translate(392 130)" d="M0 -5L1.4000000000000001 -1.4000000000000001 5 0 1.4000000000000001 1.4000000000000001 0 5 -1.4000000000000001 1.4000000000000001 -5 0 -1.4000000000000001 -1.4000000000000001Z" fill="#ffe27b"/>
</svg>