<svg xmlns="http://www.w3.org/2000/svg" viewBox="0 0 500 430">
  <defs>
    <linearGradient id="bg" x1="0" y1="0" x2="0" y2="1"><stop stop-color="#7a4a1e"/><stop offset="1" stop-color="#2c1c0c"/></linearGradient>
    <radialGradient id="spot" cx=".5" cy=".42" r=".62"><stop stop-color="#ffe6a0" stop-opacity=".5"/><stop offset="1" stop-color="#ffe6a0" stop-opacity="0"/></radialGradient>
  </defs>
  <rect width="500" height="430" fill="url(#bg)"/>
  <path transform="translate(100 100)" d="M0 -6L1.6800000000000002 -1.6800000000000002 6 0 1.6800000000000002 1.6800000000000002 0 6 -1.6800000000000002 1.6800000000000002 -6 0 -1.6800000000000002 -1.6800000000000002Z" fill="#ff7ad1"/><path transform="translate(410 110)" d="M0 -6L1.6800000000000002 -1.6800000000000002 6 0 1.6800000000000002 1.6800000000000002 0 6 -1.6800000000000002 1.6800000000000002 -6 0 -1.6800000000000002 -1.6800000000000002Z" fill="#7be0ff"/><path transform="translate(380 300)" d="M0 -5L1.4000000000000001 -1.4000000000000001 5 0 1.4000000000000001 1.4000000000000001 0 5 -1.4000000000000001 1.4000000000000001 -5 0 -1.4000000000000001 -1.4000000000000001Z" fill="#ffe27b"/><path transform="translate(120 300)" d="M0 -5L1.4000000000000001 -1.4000000000000001 5 0 1.4000000000000001 1.4000000000000001 0 5 -1.4000000000000001 1.4000000000000001 -5 0 -1.4000000000000001 -1.4000000000000001Z" fill="#7be08e"/>
  <ellipse cx="250" cy="210" rx="235" ry="205" fill="url(#spot)"/>
  <ellipse cx="250" cy="378" rx="190" ry="30" fill="#000" opacity=".16"/>
  <g transform="translate(250 235) rotate(0) scale(1)">
  <path d="M-150 60C-150-78-60-140 30-128 132-114 150 8 120 86 90 150-150 178-150 60Z" fill="#5a3414"/>
  <g stroke="#806244" stroke-width="7" stroke-linecap="round" opacity=".85">
    <path d="M-120 30-150-2M-104-18-128-58M-70-42-86-92M-30-54-36-108M16-54 18-110M58-46 74-96M96-28 122-64M118 2 152-18"/>
  </g>
  <ellipse cx="36" cy="44" rx="120" ry="100" fill="#f0c05a"/>
  <ellipse cx="44" cy="74" rx="78" ry="60" fill="#f6dcb6" opacity=".55"/>
  <path d="M120 36c40 2 60 26 58 50-2 22-26 34-54 30Z" fill="#f0c05a"/>
  <circle cx="171" cy="64" r="9" fill="#241d2b"/>
  <ellipse cx="86" cy="88" rx="20" ry="12" fill="#ea8f7a" opacity=".5"/>
  <g transform="translate(70 40)">
    <circle cx="-16" cy="-2" r="11" fill="#fff" stroke="#241d2b" stroke-width="3"/>
    <circle cx="16" cy="-2" r="11" fill="#fff" stroke="#241d2b" stroke-width="3"/>
    <circle cx="-16" cy="-1" r="4.5" fill="#241d2b"/>
    <circle cx="16" cy="-1" r="4.5" fill="#241d2b"/>
    <path d="M-18 17q18 22 36 0q-18 9-36 0Z" fill="#d96b6b" stroke="#241d2b" stroke-width="3.5" stroke-linejoin="round"/></g></g>
      <!-- raised cheering paws -->
      <g transform="translate(150 170) scale(-1 1)">
    <ellipse rx="16" ry="14.4" fill="#e3b988"/>
    <circle cx="8" cy="-3" r="13.6" fill="#e3b988"/>
  </g><g transform="translate(352 165) scale(1 1)">
    <ellipse rx="16" ry="14.4" fill="#e3b988"/>
    <circle cx="8" cy="-3" r="13.6" fill="#e3b988"/>
  </g>
      <g stroke-width="6" stroke-linecap="round"><path d="M150 150l-12-20" stroke="#ff7ad1"/><path d="M352 145l14-20" stroke="#7be0ff"/></g>
</svg>