<svg xmlns="http://www.w3.org/2000/svg" viewBox="0 0 500 430">
  <defs>
    <linearGradient id="bg" x1="0" y1="0" x2="0" y2="1"><stop stop-color="#27402e"/><stop offset="1" stop-color="#0e1a13"/></linearGradient>
    <radialGradient id="spot" cx=".5" cy=".42" r=".62"><stop stop-color="#9bd17f" stop-opacity=".5"/><stop offset="1" stop-color="#9bd17f" stop-opacity="0"/></radialGradient>
  </defs>
  <rect width="500" height="430" fill="url(#bg)"/>
  <g stroke="#6b8f5a" stroke-width="4" opacity=".5"><path d="M70 330c14-30 14-60 0-90M430 330c-14-30-14-60 0-90"/></g>
  <ellipse cx="250" cy="210" rx="235" ry="205" fill="url(#spot)"/>
  <ellipse cx="250" cy="378" rx="190" ry="30" fill="#000" opacity=".16"/>
  <g transform="translate(250 235) rotate(-3) scale(1)">
  <path d="M-150 60C-150-78-60-140 30-128 132-114 150 8 120 86 90 150-150 178-150 60Z" fill="#3f5a3a"/>
  <g stroke="#557049" stroke-width="7" stroke-linecap="round" opacity=".85">
    <path d="M-120 30-150-2M-104-18-128-58M-70-42-86-92M-30-54-36-108M16-54 18-110M58-46 74-96M96-28 122-64M118 2 152-18"/>
  </g>
  <ellipse cx="36" cy="44" rx="120" ry="100" fill="#bcd3a0"/>
  <ellipse cx="44" cy="74" rx="78" ry="60" fill="#cfe2b8" opacity=".55"/>
  <path d="M120 36c40 2 60 26 58 50-2 22-26 34-54 30Z" fill="#bcd3a0"/>
  <circle cx="171" cy="64" r="9" fill="#241d2b"/>
  <ellipse cx="86" cy="88" rx="20" ry="12" fill="#ea8f7a" opacity=".5"/>
  <g transform="translate(70 40)">
    <path d="M-23-6 -10 6M-23 6 -10-6" stroke="#241d2b" stroke-width="4.5" stroke-linecap="round"/>
    <path d="M10-6 23 6M10 6 23-6" stroke="#241d2b" stroke-width="4.5" stroke-linecap="round"/>
    <path d="M-11 22q11 5 12-3q3 8 13 2" fill="none" stroke="#241d2b" stroke-width="4" stroke-linecap="round"/></g></g>
      <path d="M120 250l30 8M120 266l30-8" stroke="#241d2b" stroke-width="3"/>
      <g transform="translate(360 150) rotate(10)"><rect x="-7" y="0" width="14" height="34" rx="4" fill="#bcbcbc"/><rect x="-7" y="-30" width="14" height="34" rx="4" fill="#9c9c9c"/></g>
      <g fill="#9bd17f" opacity=".7"><circle cx="180" cy="320" r="6"/><circle cx="330" cy="330" r="5"/></g>
</svg>