<svg xmlns="http://www.w3.org/2000/svg" viewBox="0 0 64 64">
  <defs>
    <linearGradient id="background" x1="8" y1="4" x2="56" y2="60" gradientUnits="userSpaceOnUse">
      <stop stop-color="#2d1854"/>
      <stop offset="1" stop-color="#0e071d"/>
    </linearGradient>
    <linearGradient id="sparkle" x1="20" y1="12" x2="44" y2="52" gradientUnits="userSpaceOnUse">
      <stop stop-color="#fff7b3"/>
      <stop offset=".46" stop-color="#facc15"/>
      <stop offset="1" stop-color="#f59e0b"/>
    </linearGradient>
  </defs>
  <rect width="64" height="64" rx="15" fill="url(#background)"/>
  <path d="M32 8c2.3 12.8 6.6 19.7 18 24-11.4 4.3-15.7 11.2-18 24-2.3-12.8-6.6-19.7-18-24 11.4-4.3 15.7-11.2 18-24Z" fill="url(#sparkle)"/>
  <path d="M50 8c.8 4.7 2.4 7.2 6.5 8.8-4.1 1.6-5.7 4.1-6.5 8.8-.8-4.7-2.4-7.2-6.5-8.8C47.6 15.2 49.2 12.7 50 8Z" fill="#fef3c7"/>
  <path d="M13 39c.6 3.7 1.9 5.7 5.2 7-3.3 1.3-4.6 3.3-5.2 7-.6-3.7-1.9-5.7-5.2-7 3.3-1.3 4.6-3.3 5.2-7Z" fill="#fde68a"/>
</svg>
