<svg xmlns="http://www.w3.org/2000/svg" viewBox="0 0 64 64">
  <defs>
    <linearGradient id="bg" x1="8" y1="5" x2="56" y2="59" gradientUnits="userSpaceOnUse">
      <stop stop-color="#146b68"/>
      <stop offset="1" stop-color="#082f3a"/>
    </linearGradient>
    <linearGradient id="spines" x1="14" y1="15" x2="48" y2="52" gradientUnits="userSpaceOnUse">
      <stop stop-color="#ffdf68"/>
      <stop offset="1" stop-color="#ee8d43"/>
    </linearGradient>
  </defs>
  <rect width="64" height="64" rx="15" fill="url(#bg)"/>
  <path d="m14 42 2-8-5-4 8-3-2-8 8 2 4-7 5 6 7-5 2 8 8-1-3 8 7 4-7 5 1 8-8-1-4 7-6-6-7 4-1-8-8 1Z" fill="url(#spines)"/>
  <path d="M22 37c0-8 6-14 14-14 8 0 14 6 14 14 0 8-7 13-16 13-7 0-12-5-12-13Z" fill="#f7c998"/>
  <circle cx="39" cy="34" r="2" fill="#13252b"/>
  <path d="M48 38c4 0 6 1 7 3-2 2-5 3-8 2Z" fill="#13252b"/>
  <path d="M28 41c3 3 8 4 12 2" fill="none" stroke="#a85b52" stroke-linecap="round" stroke-width="2"/>
</svg>
